<?xml version="1.0" encoding="UTF-8"?>
<svg version="1.1" xmlns="http://www.w3.org/2000/svg" width="500" height="500">
<path d="M0 0 C18.62761115 -0.02332793 37.25521935 -0.04097865 55.88284206 -0.05181217 C64.53135605 -0.05697536 73.17986097 -0.06401848 81.82836914 -0.07543945 C89.36364579 -0.08538561 96.89891588 -0.09185326 104.43419892 -0.09408849 C108.42655852 -0.09539572 112.41889936 -0.0984823 116.41125298 -0.10573006 C120.16467098 -0.1124892 123.91806239 -0.11461718 127.6714859 -0.11310768 C129.05302894 -0.11338406 130.43457281 -0.11538981 131.81611061 -0.11920547 C133.69437145 -0.12414099 135.57264638 -0.12239796 137.45091248 -0.12025452 C138.50452186 -0.12117631 139.55813124 -0.1220981 140.64366817 -0.12304783 C143 0 143 0 144 1 C144.09847473 2.74395071 144.12632065 4.49191883 144.12698364 6.23864746 C144.12980347 7.37448776 144.13262329 8.51032806 144.13552856 9.68058777 C144.13249222 11.56636284 144.13249222 11.56636284 144.12939453 13.49023438 C144.13202301 15.46314201 144.13202301 15.46314201 144.13470459 17.47590637 C144.13927865 21.09357682 144.13748948 24.71121888 144.1343255 28.32888985 C144.13180176 32.10675256 144.13413948 35.88461278 144.13571167 39.66247559 C144.13753332 46.00789834 144.13512717 52.35330948 144.13037109 58.69873047 C144.12492848 66.04516643 144.12669114 73.39157464 144.1321975 80.73800993 C144.13672875 87.03438667 144.13737912 93.33075504 144.13475883 99.62713289 C144.13319612 103.3925551 144.13300212 107.15796424 144.13629532 110.92338562 C144.13970802 115.11886247 144.13498411 119.31429113 144.12939453 123.50976562 C144.13141876 124.76694901 144.13344299 126.02413239 144.13552856 127.31941223 C144.13270874 128.45525253 144.12988892 129.59109283 144.12698364 130.76135254 C144.1264181 132.25132626 144.1264181 132.25132626 144.12584114 133.77140045 C144 136 144 136 143 137 C140.2611158 137.09516211 137.54752059 137.12554594 134.80834961 137.11352539 C133.94988937 137.11367142 133.09142914 137.11381744 132.20695496 137.1139679 C129.35539262 137.11326847 126.50389475 137.1054747 123.65234375 137.09765625 C121.68079158 137.09579218 119.70923895 137.09436822 117.73768616 137.09336853 C112.53773733 137.08954251 107.33781625 137.07971152 102.13787842 137.06866455 C96.83606339 137.05845222 91.5342439 137.05387129 86.23242188 137.04882812 C75.82160237 137.03808933 65.41080349 137.02101191 55 137 C54.6687915 136.26322021 54.33758301 135.52644043 53.99633789 134.76733398 C53.33492798 133.30275757 53.33492798 133.30275757 52.66015625 131.80859375 C52.00865601 130.36311157 52.00865601 130.36311157 51.34399414 128.88842773 C48.5541539 122.89267844 45.89678742 117.53406243 41 113 C41 112.34 41 111.68 41 111 C40.34 111 39.68 111 39 111 C37.33333333 109.33333333 35.66666667 107.66666667 34 106 C24.48812494 97.93558419 12.16896036 94.45531771 0 93 C-1.07264384 83.84521803 -1.14686337 74.73036343 -1.1328125 65.52734375 C-1.13348797 63.95276372 -1.13446001 62.3781838 -1.13571167 60.80360413 C-1.13717679 57.5216471 -1.13507222 54.23971749 -1.13037109 50.95776367 C-1.12466981 46.77658122 -1.12796293 42.59546292 -1.13394356 38.4142828 C-1.13757731 35.16870144 -1.13639779 31.92313501 -1.13381577 28.67755318 C-1.13315451 27.13676508 -1.13394648 25.59597558 -1.13629532 24.05518913 C-1.13886904 21.89344629 -1.13491608 19.73180383 -1.12939453 17.57006836 C-1.12859894 16.34638046 -1.12780334 15.12269257 -1.12698364 13.86192322 C-0.97405594 9.21096959 -0.51537264 4.62284942 0 0 Z M41 63 C40.8754514 64.64230364 40.82431476 66.29052276 40.8125 67.9375 C40.79832031 68.83339844 40.78414063 69.72929687 40.76953125 70.65234375 C40.76805231 73.19114534 40.76805231 73.19114534 43 75 C45.58970485 75.2931498 45.58970485 75.2931498 48.64306641 75.22705078 C49.82413971 75.22689972 51.00521301 75.22674866 52.22207642 75.22659302 C53.50230682 75.21627045 54.78253723 75.20594788 56.1015625 75.1953125 C57.40829926 75.1924826 58.71503601 75.18965271 60.06137085 75.18673706 C63.53682081 75.17909776 67.01210383 75.1594469 70.48748779 75.1373291 C74.03330222 75.11687696 77.5791436 75.10773671 81.125 75.09765625 C88.08340195 75.07620116 95.04169296 75.04206173 102 75 C103.17664871 71.47005387 103.19850603 68.70544587 103 65 C102.34 64.01 101.68 63.02 101 62 C98.42326003 61.55381095 98.42326003 61.55381095 95.37280273 61.64355469 C94.19495712 61.64055359 93.01711151 61.63755249 91.80357361 61.63446045 C90.52648026 61.64680725 89.2493869 61.65915405 87.93359375 61.671875 C85.97704613 61.67468475 85.97704613 61.67468475 83.98097229 61.67755127 C81.21936687 61.68215625 78.45805274 61.69659031 75.6965332 61.71875 C72.14979354 61.74706037 68.60328322 61.75796393 65.05644131 61.7624321 C61.68212314 61.76757832 58.30788449 61.78211853 54.93359375 61.796875 C53.65447617 61.80112488 52.37535858 61.80537476 51.05747986 61.80975342 C49.29543968 61.82416473 49.29543968 61.82416473 47.49780273 61.83886719 C46.45792709 61.84569519 45.41805145 61.85252319 44.34666443 61.85955811 C42.04177061 61.7370291 42.04177061 61.7370291 41 63 Z " fill="#3697D3" transform="translate(254,100)"/>
<path d="M0 0 C29.37 0 58.74 0 89 0 C89 44.88 89 89.76 89 136 C86.1029726 136.9656758 84.28060756 137.12564209 81.26957703 137.12698364 C80.29596222 137.12980347 79.32234741 137.13262329 78.31922913 137.13552856 C77.25184006 137.13350433 76.18445099 137.1314801 75.0847168 137.12939453 C73.39605499 137.13202301 73.39605499 137.13202301 71.67327881 137.13470459 C67.93190998 137.13912256 64.19058811 137.13618155 60.44921875 137.1328125 C57.8382008 137.13348645 55.2271829 137.13445724 52.61616516 137.13571167 C47.12406915 137.13753376 41.63198655 137.13513114 36.13989258 137.13037109 C29.84810814 137.12497984 23.55635638 137.12665305 17.2645728 137.1321975 C11.16975847 137.13734822 5.07495822 137.13671746 -1.01985741 137.13381577 C-3.58901156 137.13315586 -6.15816656 137.13394156 -8.72731972 137.13629532 C-12.3603077 137.13888893 -15.99323699 137.134887 -19.6262207 137.12939453 C-21.16961372 137.13243088 -21.16961372 137.13243088 -22.7441864 137.13552856 C-33.53407473 137.10590839 -44.183973 136.49163759 -55 136 C-55 105.97 -55 75.94 -55 45 C-52.69 44.34 -50.38 43.68 -48 43 C-37.12172807 39.9189977 -37.12172807 39.9189977 -27 35 C-26.21109375 34.53078125 -25.4221875 34.0615625 -24.609375 33.578125 C-11.78213903 25.31518158 -5.82744086 13.597362 0 0 Z M9 39 C7.26901741 42.46196518 7.52850258 46.21454927 8 50 C10.12541462 53.40066339 11.5692305 53.88251741 15.4375 54.9375 C19.44403151 55.00779003 20.94354518 54.53249114 24 52 C26.23498174 49.25706786 26 47.62094591 26 44 C25.45149586 40.50002119 25.05725914 40.05205377 22.25 37.5 C16.75588691 34.96425549 13.89326449 35.46597565 9 39 Z M-14 62 C-14 65.63 -14 69.26 -14 73 C-11.36186576 75.63813424 -10.16146373 75.25802917 -6.48046875 75.2746582 C-5.32587158 75.28419022 -4.17127441 75.29372223 -2.98168945 75.30354309 C-1.72960693 75.30263168 -0.47752441 75.30172028 0.8125 75.30078125 C2.09229736 75.30506638 3.37209473 75.3093515 4.69067383 75.31376648 C7.400921 75.32123241 10.11103791 75.32093453 12.82128906 75.31567383 C16.29859223 75.30987459 19.77536355 75.3268185 23.25257874 75.3500185 C26.56424206 75.36826981 29.87578656 75.36457122 33.1875 75.36328125 C34.43958252 75.372491 35.69166504 75.38170074 36.98168945 75.39118958 C38.13628662 75.38496078 39.29088379 75.37873199 40.48046875 75.37231445 C42.01030396 75.37325859 42.01030396 75.37325859 43.57104492 75.3742218 C44.77337769 75.18898201 44.77337769 75.18898201 46 75 C48.70238949 70.94641576 48.22937614 68.81689896 48 64 C47.505 63.01 47.505 63.01 47 62 C26.87 62 6.74 62 -14 62 Z M9 85 C7.43058802 86.56941198 7.7550153 88.14134994 7.6875 90.3125 C7.73378061 93.54700026 7.82289329 94.72752813 9.625 97.5 C12.58989249 99.37256368 14.48392794 99.92967856 18 100 C21.97472063 98.47126129 23.61853665 97.57219503 26 94 C26.27777827 90.85763336 25.93997978 88.01010866 25 85 C18.99735552 79.53092392 15.21022317 80.44583635 9 85 Z " fill="#E74A3E" transform="translate(309,263)"/>
<path d="M0 0 C0.82862045 0.00359528 1.65724091 0.00719055 2.51097107 0.01089478 C3.81329178 0.01067574 3.81329178 0.01067574 5.141922 0.01045227 C8.02594967 0.01115171 10.9099136 0.01894554 13.79393005 0.02676392 C15.78790247 0.02862799 17.78187535 0.03005194 19.77584839 0.03105164 C25.03498082 0.03487769 30.29408583 0.04470871 35.5532074 0.05575562 C40.91534555 0.06596786 46.27748811 0.07054885 51.63963318 0.07559204 C62.16894213 0.0863309 72.69823069 0.10340837 83.2275238 0.12442017 C83.56163269 0.79336304 83.89574158 1.46230591 84.23997498 2.15151978 C84.68317078 3.03847534 85.12636658 3.92543091 85.58299255 4.83926392 C86.02022644 5.71445679 86.45746033 6.58964966 86.90794373 7.49136353 C94.33157859 22.30429636 103.45987429 32.48260228 119.2900238 38.24942017 C119.95783875 38.4668689 120.62565369 38.68431763 121.31370544 38.90835571 C123.20018005 39.56973267 123.20018005 39.56973267 126.2275238 41.12442017 C127.69096777 45.53343936 127.36837524 50.24649596 127.35691833 54.84609985 C127.35954681 56.14688728 127.35954681 56.14688728 127.36222839 57.47395325 C127.36661893 60.33142108 127.3637198 63.18882673 127.3603363 66.04629517 C127.3610099 68.03215548 127.36198039 70.01801571 127.36323547 72.00387573 C127.36470844 76.15978788 127.36256982 80.3156785 127.3578949 84.47158813 C127.35218298 89.81070024 127.35548838 95.14976224 127.36146736 100.48887253 C127.36507111 104.58593121 127.36393551 108.68297789 127.36133957 112.78003693 C127.36067055 114.74971777 127.36149784 116.71939969 127.36381912 118.68907928 C127.3663442 121.43285537 127.3625078 124.17654872 127.35691833 126.9203186 C127.35894257 127.74108383 127.3609668 128.56184906 127.36305237 129.40748596 C127.34178944 135.01015453 127.34178944 135.01015453 126.2275238 136.12442017 C124.52158289 136.22281723 122.8115441 136.25074045 121.10276794 136.25140381 C119.9921701 136.25422363 118.88157227 136.25704346 117.73731995 136.25994873 C116.50818878 136.2579245 115.27905762 136.25590027 114.01268005 136.2538147 C112.72666901 136.25556702 111.44065796 136.25731934 110.11567688 136.25912476 C106.57858216 136.2636987 103.04151649 136.26190969 99.50442123 136.25874567 C95.81064015 136.25622187 92.11686162 136.25855966 88.42308044 136.26013184 C82.21889294 136.26195347 76.01471732 136.25954738 69.81053162 136.25479126 C62.62769016 136.24934865 55.44487709 136.25111131 48.26203632 136.25661767 C42.10578575 136.26114897 35.94954375 136.26179926 29.79329205 136.259179 C26.11170677 136.25761631 22.43013485 136.25742221 18.74855042 136.26071548 C14.64647223 136.26412829 10.54444333 136.25940419 6.44236755 136.2538147 C4.59867081 136.25685104 4.59867081 136.25685104 2.71772766 136.25994873 C1.0518309 136.25571899 1.0518309 136.25571899 -0.64772034 136.25140381 C-1.61891312 136.25102678 -2.5901059 136.25064976 -3.59072876 136.25026131 C-5.7724762 136.12442017 -5.7724762 136.12442017 -6.7724762 135.12442017 C-6.87092542 133.39313919 -6.89879672 131.65781432 -6.89945984 129.92373657 C-6.90227966 128.79631042 -6.90509949 127.66888428 -6.90800476 126.5072937 C-6.90598053 125.25946106 -6.9039563 124.01162842 -6.90187073 122.72598267 C-6.90362305 121.42046448 -6.90537537 120.11494629 -6.90718079 118.76986694 C-6.91175481 115.17905507 -6.90996569 111.58827181 -6.9068017 107.99745941 C-6.90427794 104.2476239 -6.90661568 100.49779092 -6.90818787 96.74795532 C-6.91000951 90.44961098 -6.90760338 84.15127835 -6.90284729 77.85293579 C-6.89740468 70.56103133 -6.89916734 63.26915483 -6.9046737 55.97725105 C-6.90920496 49.72758303 -6.90985531 43.47792345 -6.90723503 37.22825432 C-6.90567233 33.49077776 -6.90547829 29.75331435 -6.90877151 26.01583862 C-6.91218425 21.85149467 -6.90746028 17.68719926 -6.90187073 13.52285767 C-6.90389496 12.27502502 -6.90591919 11.02719238 -6.90800476 9.74154663 C-6.90518494 8.61412048 -6.90236511 7.48669434 -6.89945984 6.32510376 C-6.89908281 5.33916229 -6.89870579 4.35322083 -6.89831734 3.33740234 C-6.64446221 -1.12677266 -3.80481827 0.00697162 0 0 Z M53.2275238 38.12442017 C52.73603358 40.3281594 52.73603358 40.3281594 52.7509613 42.87832642 C52.70455505 44.28308228 52.70455505 44.28308228 52.6572113 45.71621704 C52.63916443 46.69654907 52.62111755 47.6768811 52.6025238 48.68692017 C52.55173381 50.62582827 52.49724973 52.56464435 52.4384613 54.50332642 C52.41211609 55.79605469 52.41211609 55.79605469 52.38523865 57.11489868 C52.2275238 59.12442017 52.2275238 59.12442017 51.2275238 60.12442017 C49.59495623 60.28156671 47.95617042 60.3752743 46.31736755 60.44082642 C45.32801208 60.48272095 44.33865662 60.52461548 43.31932068 60.56777954 C42.27840271 60.60709595 41.23748474 60.64641235 40.1650238 60.68692017 C39.12023865 60.73010376 38.07545349 60.77328735 36.99900818 60.81777954 C34.40865496 60.92423241 31.81820195 61.02624776 29.2275238 61.12442017 C27.5598312 65.02893857 26.85536978 67.84464895 27.2275238 72.12442017 C27.8875238 73.11442017 28.5475238 74.10442017 29.2275238 75.12442017 C31.6432351 75.633464 31.6432351 75.633464 34.4540863 75.63613892 C36.0009613 75.68931274 36.0009613 75.68931274 37.5790863 75.74356079 C38.65932068 75.76611938 39.73955505 75.78867798 40.8525238 75.81192017 C41.94049255 75.84608032 43.0284613 75.88024048 44.1493988 75.91543579 C46.84200443 75.99810351 49.53427671 76.06719104 52.2275238 76.12442017 C52.24210632 76.77515503 52.25668884 77.42588989 52.27171326 78.09634399 C52.34616929 81.04380323 52.44283646 83.99012659 52.5400238 86.93692017 C52.5625824 87.96108032 52.58514099 88.98524048 52.60838318 90.04043579 C52.66155701 91.51480103 52.66155701 91.51480103 52.71580505 93.01895142 C52.74198914 93.92492065 52.76817322 94.83088989 52.79515076 95.76431274 C53.30191163 98.53046595 54.01045553 99.44518425 56.2275238 101.12442017 C58.17454414 101.5591565 58.17454414 101.5591565 60.2275238 101.43692017 C60.9081488 101.43305298 61.5887738 101.42918579 62.2900238 101.42520142 C64.54943489 101.2135031 64.54943489 101.2135031 67.2275238 99.12442017 C67.71964234 96.82249218 67.71964234 96.82249218 67.7040863 94.15176392 C67.7350238 93.17014282 67.7659613 92.18852173 67.7978363 91.17715454 C67.81588318 90.1491272 67.83393005 89.12109985 67.8525238 88.06192017 C67.9033084 86.02926682 67.95779127 83.99670133 68.0165863 81.96426392 C68.03414978 81.06055054 68.05171326 80.15683716 68.06980896 79.22573853 C68.2275238 77.12442017 68.2275238 77.12442017 69.2275238 76.12442017 C70.86009138 75.96727362 72.49887718 75.87356603 74.13768005 75.80801392 C75.12703552 75.76611938 76.11639099 75.72422485 77.13572693 75.68106079 C78.1766449 75.64174438 79.21756287 75.60242798 80.2900238 75.56192017 C81.33480896 75.51873657 82.37959412 75.47555298 83.45603943 75.43106079 C86.04639265 75.32460792 88.63684566 75.22259257 91.2275238 75.12442017 C93.23895447 70.64686761 93.2322145 67.96520262 92.2275238 63.12442017 C91.7325238 62.13442017 91.7325238 62.13442017 91.2275238 61.12442017 C90.23571106 61.08683594 90.23571106 61.08683594 89.22386169 61.04849243 C86.24570075 60.93288914 83.26788461 60.81000263 80.2900238 60.68692017 C79.24910583 60.64760376 78.20818787 60.60828735 77.13572693 60.56777954 C75.65169373 60.50493774 75.65169373 60.50493774 74.13768005 60.44082642 C73.22123718 60.4041687 72.30479431 60.36751099 71.36058044 60.32974243 C69.2275238 60.12442017 69.2275238 60.12442017 68.2275238 59.12442017 C68.07037726 57.49185259 67.97666967 55.85306679 67.91111755 54.21426392 C67.86922302 53.22490845 67.82732849 52.23555298 67.78416443 51.21621704 C67.74484802 50.17529907 67.70553162 49.1343811 67.6650238 48.06192017 C67.62184021 47.01713501 67.57865662 45.97234985 67.53416443 44.89590454 C67.42771156 42.30555132 67.32569621 39.71509831 67.2275238 37.12442017 C64.88785691 35.95458672 63.39360854 35.95829607 60.7900238 35.93692017 C60.00756287 35.92274048 59.22510193 35.90856079 58.41893005 35.89395142 C55.93546394 35.98355953 55.93546394 35.98355953 53.2275238 38.12442017 Z " fill="#2CB198" transform="translate(107.77247619628906,263.8755798339844)"/>
<path d="M0 0 C17.19338969 -0.02332856 34.38677447 -0.04097896 51.58017635 -0.05181217 C59.562815 -0.05697522 67.54544383 -0.06401809 75.52807617 -0.07543945 C82.48323799 -0.08538602 89.43839269 -0.09185336 96.39356142 -0.09408849 C100.07851927 -0.09539565 103.76345678 -0.09848179 107.44840813 -0.10573006 C111.55537708 -0.1137434 115.66231037 -0.11399116 119.76928711 -0.11352539 C120.99998932 -0.11712067 122.23069153 -0.12071594 123.49868774 -0.12442017 C124.61073074 -0.1230455 125.72277374 -0.12167084 126.86851501 -0.12025452 C127.84100661 -0.12117631 128.81349821 -0.1220981 129.81545925 -0.12304783 C132 0 132 0 133 1 C133.09525367 3.92194665 133.12552736 6.82020329 133.11352539 9.74243164 C133.11367142 10.6594133 133.11381744 11.57639496 133.1139679 12.52116394 C133.1132684 15.56751836 133.10547428 18.61381245 133.09765625 21.66015625 C133.0957922 23.76622993 133.09436824 25.87230403 133.09336853 27.9783783 C133.08954231 33.53342883 133.07971114 39.08845341 133.06866455 44.64349365 C133.05845267 50.3072474 133.05387139 55.97100533 133.04882812 61.63476562 C133.03808896 72.75652185 133.0210113 83.87825877 133 95 C131.79851318 95.48593628 131.79851318 95.48593628 130.57275391 95.98168945 C128.97826416 96.63463989 128.97826416 96.63463989 127.3515625 97.30078125 C126.30307129 97.72786377 125.25458008 98.15494629 124.17431641 98.5949707 C111.56316357 104.17697228 100.66942619 113.26426055 95 126 C94.27062151 127.92148627 93.56000764 129.85018785 92.8671875 131.78515625 C92.5151123 132.76492432 92.16303711 133.74469238 91.80029297 134.75415039 C91.53619629 135.49528076 91.27209961 136.23641113 91 137 C79.28273212 137.02312215 67.56546963 137.04091443 55.84818363 137.05181217 C50.40797688 137.05704128 44.96778569 137.06413943 39.52758789 137.07543945 C34.28214298 137.08626735 29.03671308 137.09227662 23.79125786 137.09487724 C21.78529054 137.09673167 19.77932408 137.10035262 17.77336311 137.10573006 C14.97397176 137.11293919 12.17464321 137.113991 9.37524414 137.11352539 C8.53727295 137.11712067 7.69930176 137.12071594 6.8359375 137.12442017 C1.11405216 137.11405216 1.11405216 137.11405216 0 136 C-0.09632045 134.2410657 -0.1218751 132.47822841 -0.12025452 130.71665955 C-0.12162918 129.57095993 -0.12300385 128.42526031 -0.12442017 127.24484253 C-0.12082489 125.97673737 -0.11722961 124.7086322 -0.11352539 123.40209961 C-0.11324352 122.06206769 -0.11340125 120.72203561 -0.1139679 119.38200378 C-0.11425587 115.73340562 -0.1083592 112.08484005 -0.10139394 108.43624949 C-0.09516034 104.62722484 -0.0945566 100.8181995 -0.09336853 97.00917053 C-0.09025523 89.79142246 -0.08204186 82.57368946 -0.07201904 75.35594803 C-0.06085786 67.14084743 -0.05534744 58.92574612 -0.05032361 50.71063983 C-0.03985925 33.80708449 -0.02225983 16.90354384 0 0 Z M82.5 41.0625 C79.81629122 43.14237431 77.93030491 45.2117818 76 48 C76 48.66 76 49.32 76 50 C75.4225 50.268125 74.845 50.53625 74.25 50.8125 C71.94103264 51.92138723 71.94103264 51.92138723 70.0625 53.6875 C68 55 68 55 65.7734375 54.99609375 C61.01190195 53.28596478 58.17944719 49.21858644 54.90429688 45.484375 C53.33608332 43.79924138 51.89026857 42.31527869 50 41 C45.86187124 40.95496595 44.42555524 41.67620797 41.125 44.1875 C38.65511242 47.45646885 38.53514578 49.00225368 39 53 C39.66 53 40.32 53 41 53 C41 53.66 41 54.32 41 55 C42.75521948 56.73693158 42.75521948 56.73693158 44.9375 58.5 C48.89879154 61.79758308 48.89879154 61.79758308 50 64 C50.66 64 51.32 64 52 64 C52.74926071 67.66305234 53.2380014 70.42355152 52 74 C51.34 74 50.68 74 50 74 C48.28769752 75.61974559 46.62836738 77.2958946 45 79 C43 81 41 83 39 85 C38.53886708 88.32015702 38.88998281 89.80636975 40.5625 92.75 C43.76017094 95.70169625 45.67585374 96.07586222 50 96 C52.96929149 94.34294424 52.96929149 94.34294424 55 92 C55 91.34 55 90.68 55 90 C55.66 90 56.32 90 57 90 C58.34423339 88.34211215 59.67618483 86.67423683 61 85 C64.2 82 64.2 82 66.875 82 C71.30534064 84.08486618 74.54294215 87.31220194 77.5 91.125 C80.1357159 94.15607328 82.32840579 95.46305359 86 97 C89.99113798 94.7387025 92.53984485 92.95712272 94.5625 88.75 C93.75085516 83.33903443 90.6291726 81.52671371 86.53125 78.13671875 C83.4905347 75.5699421 81.70799562 73.57865748 80 70 C80.31852783 65.71372337 81.71804894 63.82527158 84.8125 60.9375 C85.49957031 60.28652344 86.18664062 59.63554687 86.89453125 58.96484375 C87.58933594 58.31644531 88.28414062 57.66804688 89 57 C92.20573637 53.99453661 92.20573637 53.99453661 94.0625 50.0625 C94.30586293 46.81400385 94.30586293 46.81400385 91.8125 44.25 C87.60321233 40.35559312 87.60321233 40.35559312 82.5 41.0625 Z " fill="#EFC415" transform="translate(101,100)"/>
<path d="M0 0 C1.051875 0.391875 2.10375 0.78375 3.1875 1.1875 C3.1875 1.8475 3.1875 2.5075 3.1875 3.1875 C3.8475 3.1875 4.5075 3.1875 5.1875 3.1875 C5.1875 2.5275 5.1875 1.8675 5.1875 1.1875 C8.36080166 -0.39915083 11.73089705 -0.22757862 15.1875 0.1875 C16.8125 1.5625 16.8125 1.5625 18.1875 3.1875 C19.074375 3.435 19.96125 3.6825 20.875 3.9375 C26.03492648 5.88464207 30.53993423 9.3268293 33.328125 14.16796875 C34.01992176 15.81268164 34.61313466 17.49819017 35.1875 19.1875 C35.5175 19.5175 35.8475 19.8475 36.1875 20.1875 C37.53963143 28.48808461 37.43590673 35.41059406 34.1875 43.1875 C33.713125 44.404375 33.23875 45.62125 32.75 46.875 C30.12214232 51.31733084 25.25855415 53.13974581 20.76953125 55.31640625 C17.90139996 56.99100403 17.90139996 56.99100403 17.296875 60.2734375 C17.19665421 62.94360576 17.45441845 64.66244132 18.1875 67.1875 C18.3125 69.875 18.3125 69.875 18.1875 72.1875 C17.1875 73.1875 17.1875 73.1875 14.68725586 73.30102539 C13.60323486 73.29578857 12.51921387 73.29055176 11.40234375 73.28515625 C9.64760742 73.28032227 9.64760742 73.28032227 7.85742188 73.27539062 C6.62572266 73.26701172 5.39402344 73.25863281 4.125 73.25 C2.27165039 73.24323242 2.27165039 73.24323242 0.38085938 73.23632812 C-2.68364117 73.22449608 -5.74804721 73.20801173 -8.8125 73.1875 C-9.88674559 69.96476323 -9.88280019 67.56190893 -9.8125 64.1875 C-9.8125 63.1975 -9.8125 62.2075 -9.8125 61.1875 C-9.8125 59.8675 -9.8125 58.5475 -9.8125 57.1875 C-10.84375 56.630625 -11.875 56.07375 -12.9375 55.5 C-20.82769369 50.92528164 -25.04157531 46.28532317 -27.5703125 37.578125 C-29.00224762 31.16160559 -29.01581403 25.44246373 -26.8125 19.1875 C-26.1525 18.5275 -25.4925 17.8675 -24.8125 17.1875 C-24.60625 16.300625 -24.4 15.41375 -24.1875 14.5 C-22.21595889 9.75037823 -18.97407168 7.11226813 -14.8125 4.1875 C-11.625 2.9375 -11.625 2.9375 -8.8125 2.1875 C-8.008125 1.61 -7.20375 1.0325 -6.375 0.4375 C-3.8125 -0.8125 -3.8125 -0.8125 0 0 Z M3.1875 51.1875 C3.1875 52.1775 3.1875 53.1675 3.1875 54.1875 C1.5375 54.8475 -0.1125 55.5075 -1.8125 56.1875 C-1.8125 56.5175 -1.8125 56.8475 -1.8125 57.1875 C2.4775 57.1875 6.7675 57.1875 11.1875 57.1875 C9.5375 55.8675 7.8875 54.5475 6.1875 53.1875 C5.8575 52.5275 5.5275 51.8675 5.1875 51.1875 C4.5275 51.1875 3.8675 51.1875 3.1875 51.1875 Z " fill="#667D86" transform="translate(245.8125,220.8125)"/>
<path d="M0 0 C29.37 0 58.74 0 89 0 C89 44.88 89 89.76 89 136 C86.1029726 136.9656758 84.28060756 137.12564209 81.26957703 137.12698364 C80.29596222 137.12980347 79.32234741 137.13262329 78.31922913 137.13552856 C77.25184006 137.13350433 76.18445099 137.1314801 75.0847168 137.12939453 C73.39605499 137.13202301 73.39605499 137.13202301 71.67327881 137.13470459 C67.93190998 137.13912256 64.19058811 137.13618155 60.44921875 137.1328125 C57.8382008 137.13348645 55.2271829 137.13445724 52.61616516 137.13571167 C47.12406915 137.13753376 41.63198655 137.13513114 36.13989258 137.13037109 C29.84810814 137.12497984 23.55635638 137.12665305 17.2645728 137.1321975 C11.16975847 137.13734822 5.07495822 137.13671746 -1.01985741 137.13381577 C-3.58901156 137.13315586 -6.15816656 137.13394156 -8.72731972 137.13629532 C-12.3603077 137.13888893 -15.99323699 137.134887 -19.6262207 137.12939453 C-21.16961372 137.13243088 -21.16961372 137.13243088 -22.7441864 137.13552856 C-33.53407473 137.10590839 -44.183973 136.49163759 -55 136 C-55 105.97 -55 75.94 -55 45 C-47.125 42.75 -47.125 42.75 -43 44 C-43 44.66 -43 45.32 -43 46 C-46.3 46 -49.6 46 -53 46 C-53 75.04 -53 104.08 -53 134 C-7.13 134 38.74 134 86 134 C86 90.44 86 46.88 86 2 C44.42 2.495 44.42 2.495 2 3 C1.67 4.65 1.34 6.3 1 8 C-0.9375 11.3125 -0.9375 11.3125 -3 14 C-3.66 14 -4.32 14 -5 14 C-3.79814957 9.1925983 -1.84037311 4.60093277 0 0 Z " fill="#D37C74" transform="translate(309,263)"/>
<path d="M0 0 C17.19338969 -0.02332856 34.38677447 -0.04097896 51.58017635 -0.05181217 C59.562815 -0.05697522 67.54544383 -0.06401809 75.52807617 -0.07543945 C82.48323799 -0.08538602 89.43839269 -0.09185336 96.39356142 -0.09408849 C100.07851927 -0.09539565 103.76345678 -0.09848179 107.44840813 -0.10573006 C111.55537708 -0.1137434 115.66231037 -0.11399116 119.76928711 -0.11352539 C120.99998932 -0.11712067 122.23069153 -0.12071594 123.49868774 -0.12442017 C124.61073074 -0.1230455 125.72277374 -0.12167084 126.86851501 -0.12025452 C127.84100661 -0.12117631 128.81349821 -0.1220981 129.81545925 -0.12304783 C132 0 132 0 133 1 C133.09525367 3.92194665 133.12552736 6.82020329 133.11352539 9.74243164 C133.11367142 10.6594133 133.11381744 11.57639496 133.1139679 12.52116394 C133.1132684 15.56751836 133.10547428 18.61381245 133.09765625 21.66015625 C133.0957922 23.76622993 133.09436824 25.87230403 133.09336853 27.9783783 C133.08954231 33.53342883 133.07971114 39.08845341 133.06866455 44.64349365 C133.05845267 50.3072474 133.05387139 55.97100533 133.04882812 61.63476562 C133.03808896 72.75652185 133.0210113 83.87825877 133 95 C130.36 95.66 127.72 96.32 125 97 C125 96.34 125 95.68 125 95 C127.97 94.505 127.97 94.505 131 94 C130.67 63.97 130.34 33.94 130 3 C127.50031587 1.75015794 125.81843683 1.87416457 123.02073669 1.87301636 C121.96766327 1.87019653 120.91458984 1.86737671 119.8296051 1.86447144 C118.08948402 1.86750778 118.08948402 1.86750778 116.31420898 1.87060547 C114.48738586 1.86797699 114.48738586 1.86797699 112.62365723 1.86529541 C109.27875219 1.86164114 105.93390877 1.86250771 102.58900714 1.8656745 C99.09409167 1.86820103 95.59917888 1.86585979 92.10426331 1.86428833 C86.23560105 1.86246774 80.36695137 1.86487031 74.49829102 1.86962891 C67.70453365 1.87507385 60.91080628 1.87330675 54.11704963 1.8678025 C48.29198621 1.86327125 42.46693184 1.8626208 36.64186722 1.86524117 C33.15926977 1.86680355 29.67668644 1.86699871 26.19408989 1.86370468 C22.3148468 1.86029191 18.43563758 1.86501588 14.55639648 1.87060547 C12.81323906 1.86756912 12.81323906 1.86756912 11.03486633 1.86447144 C9.45948593 1.86870117 9.45948593 1.86870117 7.85227966 1.87301636 C6.93400611 1.87339338 6.01573256 1.87377041 5.06963253 1.87415886 C3.00909123 1.76994614 3.00909123 1.76994614 2 3 C1.89159176 4.70787067 1.85313602 6.4202148 1.84178162 8.13148499 C1.8319928 9.24352798 1.82220398 10.35557098 1.81211853 11.50131226 C1.80636307 12.73201447 1.8006076 13.96271667 1.79467773 15.23071289 C1.78477814 16.51833023 1.77487854 17.80594757 1.76467896 19.13258362 C1.73756643 22.67371371 1.71659137 26.21485723 1.69667697 29.75603414 C1.67485642 33.45297666 1.64744856 37.14987753 1.62062073 40.8467865 C1.57064051 47.85200878 1.52572153 54.85725411 1.48259836 61.86252159 C1.43327143 69.83581833 1.3783365 77.8090733 1.32291877 85.78232968 C1.20901695 102.18818131 1.10219587 118.59407119 1 135 C12.01374394 134.96197739 23.02714704 134.90266577 34.04062271 134.81609726 C39.15453636 134.77657132 44.2682765 134.74440797 49.38232422 134.72900391 C54.31678592 134.713871 59.25077076 134.6794855 64.18502045 134.63169098 C66.06844694 134.61684238 67.9519415 134.608957 69.83542633 134.60811615 C72.47185739 134.60575516 75.10696125 134.57874677 77.74316406 134.54589844 C78.52359573 134.5509288 79.3040274 134.55595917 80.10810852 134.56114197 C83.72480548 134.49132332 85.58758569 134.35084956 88.39105225 131.96588135 C88.922005 131.3171405 89.45295776 130.66839966 90 130 C90.66 130 91.32 130 92 130 C91.67 132.31 91.34 134.62 91 137 C79.28273212 137.02312215 67.56546963 137.04091443 55.84818363 137.05181217 C50.40797688 137.05704128 44.96778569 137.06413943 39.52758789 137.07543945 C34.28214298 137.08626735 29.03671308 137.09227662 23.79125786 137.09487724 C21.78529054 137.09673167 19.77932408 137.10035262 17.77336311 137.10573006 C14.97397176 137.11293919 12.17464321 137.113991 9.37524414 137.11352539 C8.53727295 137.11712067 7.69930176 137.12071594 6.8359375 137.12442017 C1.11405216 137.11405216 1.11405216 137.11405216 0 136 C-0.09632045 134.2410657 -0.1218751 132.47822841 -0.12025452 130.71665955 C-0.12162918 129.57095993 -0.12300385 128.42526031 -0.12442017 127.24484253 C-0.12082489 125.97673737 -0.11722961 124.7086322 -0.11352539 123.40209961 C-0.11324352 122.06206769 -0.11340125 120.72203561 -0.1139679 119.38200378 C-0.11425587 115.73340562 -0.1083592 112.08484005 -0.10139394 108.43624949 C-0.09516034 104.62722484 -0.0945566 100.8181995 -0.09336853 97.00917053 C-0.09025523 89.79142246 -0.08204186 82.57368946 -0.07201904 75.35594803 C-0.06085786 67.14084743 -0.05534744 58.92574612 -0.05032361 50.71063983 C-0.03985925 33.80708449 -0.02225983 16.90354384 0 0 Z " fill="#E5CC66" transform="translate(101,100)"/>
<path d="M0 0 C0.66 0 1.32 0 2 0 C2.27573092 2.10094974 2.51978976 4.20607635 2.75 6.3125 C2.88921875 7.48425781 3.0284375 8.65601563 3.171875 9.86328125 C3 13 3 13 1.171875 14.90625 C-1.44711223 16.22516443 -3.09658146 16.21775639 -6 16 C-7.32 16 -8.64 16 -10 16 C-12.33333333 16 -14.66666667 16 -17 16 C-16.071875 16.226875 -15.14375 16.45375 -14.1875 16.6875 C-10.4190813 18.23920182 -9.55363343 19.28854237 -8 23 C-7.56457461 26.5704882 -7.96794289 29.00538952 -10 32 C-12.7357627 32.9119209 -14.65625968 33.22244822 -17.5 33.3125 C-18.66015625 33.36857422 -18.66015625 33.36857422 -19.84375 33.42578125 C-22 33 -22 33 -23.61645508 31.36694336 C-25.4078993 28.30217333 -25.34301933 26.24003276 -25.29296875 22.703125 C-25.28330078 21.49785156 -25.27363281 20.29257812 -25.26367188 19.05078125 C-25.23853516 17.79652344 -25.21339844 16.54226563 -25.1875 15.25 C-25.17396484 13.98027344 -25.16042969 12.71054688 -25.14648438 11.40234375 C-25.1111324 8.26780156 -25.06178248 5.13411455 -25 2 C-24.46890625 2.41717285 -23.9378125 2.8343457 -23.390625 3.26416016 C-22.68421875 3.80862793 -21.9778125 4.3530957 -21.25 4.9140625 C-20.55390625 5.45498535 -19.8578125 5.9959082 -19.140625 6.55322266 C-16.16049011 8.56739685 -13.50102013 9.27062081 -10 10 C-10 9.34 -10 8.68 -10 8 C-10.99 7.67 -11.98 7.34 -13 7 C-11.46936114 5.46936114 -9.73270613 5.55242647 -7.625 5.1875 C-3.86637635 4.43794544 -3.86637635 4.43794544 -1.0625 1.875 C-0.5365625 0.946875 -0.5365625 0.946875 0 0 Z " fill="#D7ECEB" transform="translate(277,242)"/>
<path d="M0 0 C0.474375 0.78375 0.94875 1.5675 1.4375 2.375 C4.57969272 5.59383156 6.74617929 5.89836713 11.07421875 6.54296875 C11.70972656 6.69378906 12.34523437 6.84460938 13 7 C13.33 7.66 13.66 8.32 14 9 C13.01 9 12.02 9 11 9 C11 9.66 11 10.32 11 11 C12.75478052 10.43120907 14.50369158 9.84429344 16.25 9.25 C17.22453125 8.92515625 18.1990625 8.6003125 19.203125 8.265625 C22.19657018 6.91104925 23.75961793 5.35785529 26 3 C26.11608127 7.41644598 26.1872132 11.83250017 26.25 16.25 C26.30027344 18.13138672 26.30027344 18.13138672 26.3515625 20.05078125 C26.36445313 21.25605469 26.37734375 22.46132813 26.390625 23.703125 C26.41157227 24.81333008 26.43251953 25.92353516 26.45410156 27.06738281 C25.89755604 30.6615897 24.83759717 31.80167233 22 34 C18.92932141 34.7237648 16.0965948 34.56301724 13 34 C10.9375 32.5 10.9375 32.5 10 30 C9.48017561 25.69412127 9.52080784 22.71878825 12 19 C15.625 18.3125 15.625 18.3125 19 18 C19 17.01 19 16.02 19 15 C18.34 15 17.68 15 17 15 C17 15.66 17 16.32 17 17 C11.25 17.125 11.25 17.125 9 16 C7.88625 16.20625 6.7725 16.4125 5.625 16.625 C2 17 2 17 -0.23828125 15.90234375 C-2 14 -2 14 -2.20703125 11.15234375 C-2.07683594 10.09144531 -1.94664062 9.03054687 -1.8125 7.9375 C-1.69519531 6.87402344 -1.57789063 5.81054688 -1.45703125 4.71484375 C-1 2 -1 2 0 0 Z " fill="#EFF4F0" transform="translate(222,241)"/>
<path d="M0 0 C7.56056338 -0.37183099 7.56056338 -0.37183099 9.625 1.375 C10.07875 1.91125 10.5325 2.4475 11 3 C12.3303125 3.37125 12.3303125 3.37125 13.6875 3.75 C18.84742648 5.69714207 23.35243423 9.1393293 26.140625 13.98046875 C26.83242176 15.62518164 27.42563466 17.31069017 28 19 C28.33 19.33 28.66 19.66 29 20 C30.35023487 28.28894187 30.26463937 35.23619376 27 43 C26.75507813 43.64710938 26.51015625 44.29421875 26.2578125 44.9609375 C23.63973342 50.6708433 18.74145295 53.79715683 13 56 C8.91588377 56.60542185 5.06326966 56.79781094 1 56 C-1.17989239 54.36542062 -1.91937878 53.49633389 -2.36076355 50.77900696 C-2.35410172 49.91518906 -2.34743988 49.05137115 -2.34057617 48.16137695 C-2.34034958 47.1805867 -2.34012299 46.19979645 -2.33988953 45.18928528 C-2.32440567 44.13295395 -2.30892181 43.07662262 -2.29296875 41.98828125 C-2.28872391 40.90491989 -2.28447906 39.82155853 -2.28010559 38.70536804 C-2.26329569 35.24082723 -2.22563848 31.77686538 -2.1875 28.3125 C-2.17245619 25.96550318 -2.15876726 23.61849726 -2.14648438 21.27148438 C-2.11338461 15.51412495 -2.06316205 9.75710383 -2 4 C-1.67 4 -1.34 4 -1 4 C-0.98582031 5.00160156 -0.97164062 6.00320312 -0.95703125 7.03515625 C-0.88857441 15.61456538 -0.88857441 15.61456538 2.1875 23.4375 C4.78296695 26.29201905 4.78296695 26.29201905 8.3125 26.4375 C9.199375 26.293125 10.08625 26.14875 11 26 C11 24.02 11 22.04 11 20 C12.32 20.33 13.64 20.66 15 21 C14.67 22.65 14.34 24.3 14 26 C16.31 25.34 18.62 24.68 21 24 C21.19477739 22.37585622 21.38059458 20.75063577 21.5625 19.125 C21.66691406 18.22007812 21.77132813 17.31515625 21.87890625 16.3828125 C22.19674852 13.98346943 22.19674852 13.98346943 21 12 C20.01 11.67 19.02 11.34 18 11 C16.66666667 9.66666667 15.33333333 8.33333333 14 7 C13.01 6.67 12.02 6.34 11 6 C10.67 7.98 10.34 9.96 10 12 C9.01 11.67 8.02 11.34 7 11 C7.33 10.67 7.66 10.34 8 10 C8.16666667 7 8.16666667 7 8 4 C7.01732141 2.79438816 7.01732141 2.79438816 5.15234375 2.90234375 C3.1015625 2.93489583 1.05078125 2.96744792 -1 3 C-0.67 2.01 -0.34 1.02 0 0 Z M24 21 C22.9171875 22.2065625 22.9171875 22.2065625 21.8125 23.4375 C18.45574924 26.49587291 16.41989707 26.5750099 12 27 C11.67 27.66 11.34 28.32 11 29 C11.99 29 12.98 29 14 29 C14 29.66 14 30.32 14 31 C9.4339003 30.04872923 6.45232552 28.79107796 2.75 25.9140625 C2.04359375 25.36959473 1.3371875 24.82512695 0.609375 24.26416016 C0.07828125 23.8469873 -0.4528125 23.42981445 -1 23 C-1.08706286 27.41654255 -1.14041378 31.83286457 -1.1875 36.25 C-1.21263672 37.50425781 -1.23777344 38.75851562 -1.26367188 40.05078125 C-1.27333984 41.25605469 -1.28300781 42.46132813 -1.29296875 43.703125 C-1.3086792 44.81333008 -1.32438965 45.92353516 -1.34057617 47.06738281 C-0.96196196 50.32753618 -0.28967651 51.68680771 2 54 C4.17403523 54.51922721 4.17403523 54.51922721 6.5 54.3125 C7.2734375 54.28800781 8.046875 54.26351562 8.84375 54.23828125 C11.18084889 54.05644612 11.18084889 54.05644612 14 53 C16.07863089 50.29777985 15.99242716 48.89208704 15.75 45.4375 C15.19717567 41.90079631 15.19717567 41.90079631 13 39 C10.44816596 37.79549696 10.44816596 37.79549696 8 37 C11.33333333 37 14.66666667 37 18 37 C23.03453395 36.69545314 23.03453395 36.69545314 27 34 C27.02135378 30.86454234 27.02135378 30.86454234 26.625 27.375 C26.51414062 26.18648437 26.40328125 24.99796875 26.2890625 23.7734375 C26.19367188 22.85820312 26.09828125 21.94296875 26 21 C25.34 21 24.68 21 24 21 Z " fill="#3F545B" transform="translate(253,221)"/>
<path d="M0 0 C0.33 0.66 0.66 1.32 1 2 C2.27875 1.79375 3.5575 1.5875 4.875 1.375 C7.0546875 1.0234375 7.0546875 1.0234375 9 1 C11 3 11 3 11.1875 6.0625 C11 9 11 9 10 10 C10.66 10.33 11.32 10.66 12 11 C12.33 9.02 12.66 7.04 13 5 C15.375 5.25 15.375 5.25 18 6 C18.69937532 7.31647119 19.36729133 8.65022151 20 10 C22.02463255 10.65213292 22.02463255 10.65213292 24 11 C25.3899408 13.7798816 25.18488204 15.9186326 25 19 C24.09666728 21.70999816 23.46765337 22.69828815 21.0625 24.25 C19 25 19 25 16 25 C16 23.35 16 21.7 16 20 C15.34 20 14.68 20 14 20 C14.020625 20.804375 14.04125 21.60875 14.0625 22.4375 C14 25 14 25 13 26 C10.3125 26.5625 10.3125 26.5625 7 26 C5.02 23.36 3.04 20.72 1 18 C0.67 28.56 0.34 39.12 0 50 C-0.66 50 -1.32 50 -2 50 C-2 34.16 -2 18.32 -2 2 C-1.34 2 -0.68 2 0 2 C0 1.34 0 0.68 0 0 Z " fill="#E1E1E7" transform="translate(251,222)"/>
<path d="M0 0 C47.19 0 94.38 0 143 0 C142.67 1.32 142.34 2.64 142 4 C142 3.34 142 2.68 142 2 C95.8 2 49.6 2 2 2 C1.67 31.04 1.34 60.08 1 90 C0.67 90 0.34 90 0 90 C-0.71779175 84.83438425 -1.1260174 79.86708051 -1.12939453 74.64111328 C-1.13114685 73.95375092 -1.13289917 73.26638855 -1.13470459 72.55819702 C-1.13906372 70.31220893 -1.13620557 68.06630124 -1.1328125 65.8203125 C-1.1334874 64.24144475 -1.13445897 62.66257711 -1.13571167 61.08370972 C-1.13718074 57.7838237 -1.13506016 54.48396487 -1.13037109 51.18408203 C-1.1246837 46.97927234 -1.12795158 42.77452664 -1.13394356 38.56971931 C-1.1375786 35.31126433 -1.13639697 32.0528242 -1.13381577 28.79436874 C-1.13315413 27.24520739 -1.13394787 25.69604464 -1.13629532 24.14688492 C-1.13886949 21.97044621 -1.13491485 19.79410717 -1.12939453 17.61767578 C-1.12859894 16.38493927 -1.12780334 15.15220276 -1.12698364 13.8821106 C-0.97520581 9.24199855 -0.46195534 4.61955339 0 0 Z " fill="#69A0BF" transform="translate(254,100)"/>
<path d="M0 0 C0.66 0 1.32 0 2 0 C2.02332869 16.93262204 2.04097903 33.86523908 2.05181217 50.7978735 C2.05697519 58.65944391 2.06401801 66.52100435 2.07543945 74.38256836 C2.0853861 81.23225475 2.09185338 88.08193392 2.09408849 94.93162733 C2.09539563 98.56069396 2.09848169 102.18973994 2.10573006 105.81879997 C2.11374356 109.86350304 2.11399115 113.90816989 2.11352539 117.95288086 C2.11712067 119.16488159 2.12071594 120.37688232 2.12442017 121.62561035 C2.1230455 122.72082504 2.12167084 123.81603973 2.12025452 124.94444275 C2.12117631 125.90218566 2.1220981 126.85992857 2.12304783 127.84669399 C2 130 2 130 1 131 C-1.7388842 131.09516211 -4.45247941 131.12554594 -7.19165039 131.11352539 C-8.05011063 131.11367142 -8.90857086 131.11381744 -9.79304504 131.1139679 C-12.64460738 131.11326847 -15.49610525 131.1054747 -18.34765625 131.09765625 C-20.31920842 131.09579218 -22.29076105 131.09436822 -24.26231384 131.09336853 C-29.46226267 131.08954251 -34.66218375 131.07971152 -39.86212158 131.06866455 C-45.16393661 131.05845222 -50.4657561 131.05387129 -55.76757812 131.04882812 C-66.17839763 131.03808933 -76.58919651 131.02101191 -87 131 C-87 130.34 -87 129.68 -87 129 C-58.29 129 -29.58 129 0 129 C0 86.43 0 43.86 0 0 Z " fill="#7AACCC" transform="translate(396,106)"/>
<path d="M0 0 C8.58 0 17.16 0 26 0 C25.67 1.65 25.34 3.3 25 5 C25.29369827 6.34262065 25.6278958 7.67696283 26 9 C26.125 11.6875 26.125 11.6875 26 14 C25 15 25 15 22.49975586 15.11352539 C21.41573486 15.10828857 20.33171387 15.10305176 19.21484375 15.09765625 C18.04501953 15.09443359 16.87519531 15.09121094 15.66992188 15.08789062 C14.43822266 15.07951172 13.20652344 15.07113281 11.9375 15.0625 C10.08415039 15.05573242 10.08415039 15.05573242 8.19335938 15.04882812 C5.12885883 15.03699608 2.06445279 15.02051173 -1 15 C-2.06546953 11.8035914 -2.07427838 9.34252724 -2 6 C-1.01 5.67 -0.02 5.34 1 5 C0.67 3.35 0.34 1.7 0 0 Z " fill="#82B9C5" transform="translate(238,279)"/>
<path d="M0 0 C3 0.25 3 0.25 5 2.25 C5.3359375 5.515625 5.3359375 5.515625 5.375 9.5 C5.40335938 10.80453125 5.43171875 12.1090625 5.4609375 13.453125 C4.83016712 18.64896234 2.64026101 21.60973899 -1 25.25 C-4.125 25.375 -4.125 25.375 -7 25.25 C-7.38218767 23.59385343 -7.71395102 21.92542976 -8 20.25 C-7.67 19.92 -7.34 19.59 -7 19.25 C-7.99 19.25 -8.98 19.25 -10 19.25 C-10 20.57 -10 21.89 -10 23.25 C-14.44 23.61 -14.44 23.61 -16.75 22.125 C-18.89943216 18.90085176 -19.25746105 15.6476457 -18.5625 11.875 C-18.376875 11.33875 -18.19125 10.8025 -18 10.25 C-17.071875 10.12625 -17.071875 10.12625 -16.125 10 C-15.42375 9.7525 -14.7225 9.505 -14 9.25 C-13.690625 8.59 -13.38125 7.93 -13.0625 7.25 C-12.711875 6.59 -12.36125 5.93 -12 5.25 C-9.375 4.5 -9.375 4.5 -7 4.25 C-6.6596875 5.425625 -6.6596875 5.425625 -6.3125 6.625 C-5.21875 9.46875 -5.21875 9.46875 -2.375 10.5625 C-1.59125 10.789375 -0.8075 11.01625 0 11.25 C0.33 7.95 0.66 4.65 1 1.25 C0.01 1.745 0.01 1.745 -1 2.25 C-1.65772428 5.27934491 -1.65772428 5.27934491 -2 8.25 C-1.34 8.25 -0.68 8.25 0 8.25 C0 8.91 0 9.57 0 10.25 C-1.65 9.59 -3.3 8.93 -5 8.25 C-5.125 5.375 -5.125 5.375 -5 2.25 C-3 0.25 -3 0.25 0 0 Z " fill="#D7ECEF" transform="translate(243,222.75)"/>
<path d="M0 0 C0.33 0 0.66 0 1 0 C1 42.24 1 84.48 1 128 C14.9425 127.9175 28.885 127.835 43.25 127.75 C47.65118164 127.73420898 52.05236328 127.71841797 56.58691406 127.70214844 C60.53466234 127.66892534 60.53466234 127.66892534 64.48236084 127.63043213 C66.23963961 127.61582519 67.99699411 127.60904694 69.7543335 127.60845947 C72.41778435 127.60604527 75.07993772 127.57873575 77.74316406 127.54589844 C78.52508244 127.55092251 79.30700081 127.55594658 80.11261368 127.56112289 C83.72786003 127.49121962 85.58886155 127.34976416 88.39105225 124.96588135 C88.922005 124.3171405 89.45295776 123.66839966 90 123 C90.66 123 91.32 123 92 123 C91.67 125.31 91.34 127.62 91 130 C79.28273212 130.02312215 67.56546963 130.04091443 55.84818363 130.05181217 C50.40797688 130.05704128 44.96778569 130.06413943 39.52758789 130.07543945 C34.28214298 130.08626735 29.03671308 130.09227662 23.79125786 130.09487724 C21.78529054 130.09673167 19.77932408 130.10035262 17.77336311 130.10573006 C14.97397176 130.11293919 12.17464321 130.113991 9.37524414 130.11352539 C8.53727295 130.11712067 7.69930176 130.12071594 6.8359375 130.12442017 C1.11405216 130.11405216 1.11405216 130.11405216 0 129 C-0.09614133 127.32975331 -0.12187722 125.65541724 -0.12025452 123.98240662 C-0.12162918 122.89560608 -0.12300385 121.80880554 -0.12442017 120.68907166 C-0.11902725 118.88509666 -0.11902725 118.88509666 -0.11352539 117.04467773 C-0.11367142 115.78632111 -0.11381744 114.52796448 -0.1139679 113.23147583 C-0.11425585 109.77088747 -0.10835949 106.31033348 -0.10139394 102.84975314 C-0.09516003 99.23691909 -0.09455657 95.62408433 -0.09336853 92.01124573 C-0.09025532 85.16536492 -0.08204208 78.3195 -0.07201904 71.4736262 C-0.06085757 63.68173411 -0.05534737 55.88984127 -0.05032361 48.09794319 C-0.03985946 32.06528614 -0.02226023 16.0326451 0 0 Z " fill="#E6CF75" transform="translate(101,107)"/>
<path d="M0 0 C0.99 0.495 0.99 0.495 2 1 C2.02312228 12.58688402 2.0409145 24.17376259 2.05181217 35.76066494 C2.05704125 41.14033762 2.06413935 46.51999458 2.07543945 51.8996582 C2.08626745 57.08674843 2.09227665 62.27382349 2.09487724 67.46092415 C2.09673165 69.4445628 2.10035256 71.42820058 2.10573006 73.41183281 C2.11293932 76.18009136 2.11399099 78.94828638 2.11352539 81.71655273 C2.11712067 82.54517319 2.12071594 83.37379364 2.12442017 84.2275238 C2.11405216 89.88594784 2.11405216 89.88594784 1 91 C-0.70825688 91.09622036 -2.42052114 91.12187628 -4.13148499 91.12025452 C-5.24352798 91.12162918 -6.35557098 91.12300385 -7.50131226 91.12442017 C-8.73201447 91.12082489 -9.96271667 91.11722961 -11.23071289 91.11352539 C-12.51833023 91.11367142 -13.80594757 91.11381744 -15.13258362 91.1139679 C-18.6737476 91.11425586 -22.21487799 91.10835936 -25.75603414 91.10139394 C-29.45294988 91.09516017 -33.14986631 91.09455658 -36.8467865 91.09336853 C-43.85203899 91.09025528 -50.85727595 91.08204199 -57.86252159 91.07201904 C-65.83578876 91.0608577 -73.80905665 91.0553474 -81.78232968 91.05032361 C-98.18822889 91.03985937 -114.59411247 91.02226005 -131 91 C-131 90.67 -131 90.34 -131 90 C-87.77 90 -44.54 90 0 90 C-0.33 81.42 -0.66 72.84 -1 64 C-1.0759957 57.44201848 -1.14571535 50.89509852 -1.13037109 44.33837891 C-1.12495414 41.60183286 -1.13040328 38.86544782 -1.13671875 36.12890625 C-1.14074582 24.05817506 -0.71450567 12.04894193 0 0 Z " fill="#5FB3A1" transform="translate(233,309)"/>
<path d="M0 0 C2.64009947 2.19919754 3.87694488 3.50374491 4.71484375 6.8828125 C5.22162427 14.26224815 4.87392625 20.15329335 2 27 C1.75507813 27.65871094 1.51015625 28.31742187 1.2578125 28.99609375 C-1.35758985 34.7873418 -6.35863349 36.66378524 -12 39 C-12.66 38.34 -13.32 37.68 -14 37 C-13.01 37 -12.02 37 -11 37 C-9.7749276 29.81004102 -9.7749276 29.81004102 -12 23 C-14.31 22.67 -16.62 22.34 -19 22 C-18.01 20.515 -18.01 20.515 -17 19 C-17 19.66 -17 20.32 -17 21 C-16.36191406 20.84402344 -15.72382813 20.68804687 -15.06640625 20.52734375 C-14.24011719 20.33269531 -13.41382813 20.13804687 -12.5625 19.9375 C-11.32693359 19.64166016 -11.32693359 19.64166016 -10.06640625 19.33984375 C-9.04353516 19.17162109 -9.04353516 19.17162109 -8 19 C-7.67 19.33 -7.34 19.66 -7 20 C-2.6590631 19.85841338 -2.6590631 19.85841338 1 18 C1.07258946 15.81360547 1.08373783 13.62499611 1.0625 11.4375 C1.05347656 10.23996094 1.04445313 9.04242188 1.03515625 7.80859375 C1.02355469 6.88175781 1.01195312 5.95492187 1 5 C0.34 5 -0.32 5 -1 5 C-0.67 3.35 -0.34 1.7 0 0 Z " fill="#53666D" transform="translate(278,237)"/>
<path d="M0 0 C0.20439826 3.54080671 0.32797882 7.08009007 0.4375 10.625 C0.49615234 11.62402344 0.55480469 12.62304688 0.61523438 13.65234375 C0.78438079 20.94980341 0.78438079 20.94980341 -1.49487305 24.00146484 C-5.98867828 27.91449415 -9.9610015 30 -16 30 C-16 29.34 -16 28.68 -16 28 C-15.34 27.67 -14.68 27.34 -14 27 C-14.61488281 26.90203125 -15.22976562 26.8040625 -15.86328125 26.703125 C-22.51160572 25.47313196 -22.51160572 25.47313196 -25 23.0625 C-27.04684615 18.84087981 -27.76281785 15.65318891 -27 11 C-22.86301697 6.01763348 -18.32162284 2.58040571 -12 1 C-11.195625 0.4225 -10.39125 -0.155 -9.5625 -0.75 C-5.89939341 -2.53688127 -3.7592488 -1.21351189 0 0 Z M-11 3 C-11.16681109 6.08347826 -11.16681109 6.08347826 -11 9 C-8.525 9.99 -8.525 9.99 -6 11 C-6 10.34 -6 9.68 -6 9 C-6.66 9 -7.32 9 -8 9 C-7.625 6.0625 -7.625 6.0625 -7 3 C-6.34 2.67 -5.68 2.34 -5 2 C-5.33 5.3 -5.66 8.6 -6 12 C-8.375 11.3125 -8.375 11.3125 -11 10 C-12.3125 7.375 -12.3125 7.375 -13 5 C-15.44480079 5.18828772 -15.44480079 5.18828772 -18 6 C-18.69937532 7.31647119 -19.36729133 8.65022151 -20 10 C-22.125 10.75 -22.125 10.75 -24 11 C-25.11941382 16.05650527 -25.11941382 16.05650527 -23.625 20.875 C-22.17208818 22.8719664 -22.17208818 22.8719664 -21 24 C-19.33382885 24.04063832 -17.66611905 24.042721 -16 24 C-16 22.68 -16 21.36 -16 20 C-15.01 20 -14.02 20 -13 20 C-13.185625 20.804375 -13.37125 21.60875 -13.5625 22.4375 C-13.7790625 23.7059375 -13.7790625 23.7059375 -14 25 C-12.90460858 26.29113396 -12.90460858 26.29113396 -10.25 26.4375 C-6.70628751 25.96046178 -6.34588025 25.71128071 -4.1875 23.125 C-1.05939743 18.65628204 -0.81747736 15.82577854 -0.8125 10.5 C-0.79413086 9.46552734 -0.79413086 9.46552734 -0.77539062 8.41015625 C-0.77011305 6.60522506 -0.87815542 4.80082158 -1 3 C-2.88500271 0.68436913 -2.88500271 0.68436913 -6 0.75 C-9.11499729 0.68436913 -9.11499729 0.68436913 -11 3 Z " fill="#475A61" transform="translate(249,222)"/>
<path d="M0 0 C20.46 0 40.92 0 62 0 C64 13 64 13 62 16 C59.44369507 16.36076355 59.44369507 16.36076355 56.17333984 16.34057617 C54.95222504 16.34034958 53.73111023 16.34012299 52.47299194 16.33988953 C51.13563677 16.32456852 49.7982853 16.30892051 48.4609375 16.29296875 C47.09616562 16.28737422 45.73138772 16.28310344 44.36660767 16.28010559 C40.77269893 16.2686454 37.17915333 16.23916871 33.58538818 16.20599365 C29.9189546 16.17531771 26.2524624 16.16160559 22.5859375 16.14648438 C15.39045936 16.11429964 8.19528054 16.06308972 1 16 C1 15.34 1 14.68 1 14 C29.71 13.505 29.71 13.505 59 13 C60.74535599 9.88196601 60.74535599 9.88196601 60 1 C40.2 1 20.4 1 0 1 C0 0.67 0 0.34 0 0 Z " fill="#E59591" transform="translate(296,324)"/>
<path d="M0 0 C0 0.66 0 1.32 0 2 C-3.3 2 -6.6 2 -10 2 C-10 31.04 -10 60.08 -10 90 C-7.69 90 -5.38 90 -3 90 C-6.46214649 92.05164237 -7.59389235 92 -12 92 C-12 61.97 -12 31.94 -12 1 C-4.125 -1.25 -4.125 -1.25 0 0 Z " fill="#DB746E" transform="translate(266,307)"/>
<path d="M0 0 C0.66 0 1.32 0 2 0 C2.27573092 2.10094974 2.51978976 4.20607635 2.75 6.3125 C2.88921875 7.48425781 3.0284375 8.65601563 3.171875 9.86328125 C3 13 3 13 1.171875 14.90625 C-1.44711223 16.22516443 -3.09658146 16.21775639 -6 16 C-7.32 16 -8.64 16 -10 16 C-12 16 -14 16 -16 16 C-16 15.01 -16 14.02 -16 13 C-16.66 12.67 -17.32 12.34 -18 12 C-17.67 11.01 -17.34 10.02 -17 9 C-14.69 9.33 -12.38 9.66 -10 10 C-10 9.34 -10 8.68 -10 8 C-10.99 7.67 -11.98 7.34 -13 7 C-11.46936114 5.46936114 -9.73270613 5.55242647 -7.625 5.1875 C-3.86637635 4.43794544 -3.86637635 4.43794544 -1.0625 1.875 C-0.5365625 0.946875 -0.5365625 0.946875 0 0 Z " fill="#D9E8EC" transform="translate(277,242)"/>
<path d="M0 0 C29.04 0 58.08 0 88 0 C88 18.48 88 36.96 88 56 C87.67 56 87.34 56 87 56 C87 37.85 87 19.7 87 1 C58.62 1 30.24 1 1 1 C1.33 2.98 1.66 4.96 2 7 C0.125 9.75 0.125 9.75 -2 12 C-2.33 12.66 -2.66 13.32 -3 14 C-3.66 14 -4.32 14 -5 14 C-3.79814957 9.1925983 -1.84037311 4.60093277 0 0 Z " fill="#AF524B" transform="translate(309,263)"/>
<path d="M0 0 C0 2.31 0 4.62 0 7 C-3.465 8.485 -3.465 8.485 -7 10 C-6.73323796 11.98491642 -6.73323796 11.98491642 -6 14 C-5.01 14.33 -4.02 14.66 -3 15 C-2.67 16.98 -2.34 18.96 -2 21 C-1.278125 21.0825 -0.55625 21.165 0.1875 21.25 C3.85821742 22.22885798 5.51151778 23.08492083 8 26 C8.42360629 29.37296509 8.29032855 32.6192853 8 36 C7.01 36 6.02 36 5 36 C4.67 36.99 4.34 37.98 4 39 C0.62132353 41.46552067 -0.70558202 42 -5 42 C-5.495 40.515 -5.495 40.515 -6 39 C-5.278125 38.938125 -4.55625 38.87625 -3.8125 38.8125 C-0.04028505 37.72274901 1.5742702 36.04948889 4 33 C4.57861063 30.57237268 4.57861063 30.57237268 4 28 C1.95590622 25.64418738 1.95590622 25.64418738 -0.75 23.5625 C-7.86212004 17.47936754 -7.86212004 17.47936754 -10 13 C-9.69334752 8.61415638 -8.13713768 6.66217877 -5 3.6875 C-4.278125 2.99011719 -3.55625 2.29273438 -2.8125 1.57421875 C-1 0 -1 0 0 0 Z " fill="#E1CF68" transform="translate(190,157)"/>
<path d="M0 0 C43.56 0 87.12 0 132 0 C132 0.33 132 0.66 132 1 C89.43 1.33 46.86 1.66 3 2 C2.34 3.65 1.68 5.3 1 7 C0.67 7 0.34 7 0 7 C0 4.69 0 2.38 0 0 Z " fill="#DAC563" transform="translate(101,100)"/>
<path d="M0 0 C0.33 0.66 0.66 1.32 1 2 C2.27875 1.79375 3.5575 1.5875 4.875 1.375 C7.0546875 1.0234375 7.0546875 1.0234375 9 1 C11 3 11 3 11.25 5.9375 C11 9 11 9 9 12 C8.01 12 7.02 12 6 12 C5.67 12.66 5.34 13.32 5 14 C5 12.35 5 10.7 5 9 C3.68 8.67 2.36 8.34 1 8 C0.67 21.86 0.34 35.72 0 50 C-0.66 50 -1.32 50 -2 50 C-2 34.16 -2 18.32 -2 2 C-1.34 2 -0.68 2 0 2 C0 1.34 0 0.68 0 0 Z " fill="#91B0BC" transform="translate(251,222)"/>
<path d="M0 0 C0.33 0 0.66 0 1 0 C1 26.07 1 52.14 1 79 C4.96 79.495 4.96 79.495 9 80 C11.34067054 80.48679894 13.67504007 81.00547835 16 81.5625 C17.134375 81.83191406 18.26875 82.10132813 19.4375 82.37890625 C20.283125 82.58386719 21.12875 82.78882813 22 83 C22 83.66 22 84.32 22 85 C22.66 85.33 23.32 85.66 24 86 C20.39478361 87.2017388 19.88710733 86.73243247 16.5625 85.1875 C10.09571842 82.42172536 10.09571842 82.42172536 -1 81 C-0.67 54.27 -0.34 27.54 0 0 Z " fill="#3A91C2" transform="translate(255,112)"/>
<path d="M0 0 C2.02408755 0.09002398 4.04544287 0.24641038 6.0625 0.4375 C7.16722656 0.53933594 8.27195313 0.64117187 9.41015625 0.74609375 C10.26480469 0.82988281 11.11945313 0.91367188 12 1 C12.33 2.32 12.66 3.64 13 5 C12.113125 4.62875 11.22625 4.2575 10.3125 3.875 C7.10238547 2.75341071 7.10238547 2.75341071 4.25 3.625 C1.61491753 5.23532818 1.260257 6.24318781 0 9 C-2.3125 11.5 -2.3125 11.5 -5 14 C-5.825 14.78375 -6.65 15.5675 -7.5 16.375 C-10 18 -10 18 -12.5625 18.0625 C-15.71893305 16.68661893 -17.0639401 14.79653096 -19 12 C-16.69 12.66 -14.38 13.32 -12 14 C-11.67 13.01 -11.34 12.02 -11 11 C-7.62338989 7.85625955 -5.54681606 8 -1 8 C-1.0309375 6.2984375 -1.0309375 6.2984375 -1.0625 4.5625 C-1 1 -1 1 0 0 Z " fill="#E8C740" transform="translate(179,138)"/>
<path d="M0 0 C0.33 0.66 0.66 1.32 1 2 C1.66 2 2.32 2 3 2 C4.125 7.75 4.125 7.75 3 10 C4.32 9.67 5.64 9.34 7 9 C7 9.66 7 10.32 7 11 C7.9590625 11.2165625 7.9590625 11.2165625 8.9375 11.4375 C11 12 11 12 12 13 C12.125 15.5 12.125 15.5 12 18 C11 19 11 19 8.3125 19.5625 C4.58457095 18.92945544 3.98658341 18.4129025 1.625 15.625 C-1.58734101 10.93649184 -1.85239211 6.53515383 -1 1 C-0.67 0.67 -0.34 0.34 0 0 Z " fill="#E0D6D7" transform="translate(253,229)"/>
<path d="M0 0 C3.53721739 0.45074692 5.45350975 1.96491147 8.0625 4.3125 C8.73410156 4.90675781 9.40570313 5.50101563 10.09765625 6.11328125 C11.97784138 7.97802338 13.56245801 9.77544927 15 12 C14.6875 14.25 14.6875 14.25 14 16 C11.8125 16.3125 11.8125 16.3125 9 16 C6.1875 13.625 6.1875 13.625 4 11 C4 10.34 4 9.68 4 9 C3.34 9 2.68 9 2 9 C2 8.34 2 7.68 2 7 C1.34 7 0.68 7 0 7 C-0.38133299 5.0085944 -0.71325582 3.00720923 -1 1 C-0.67 0.67 -0.34 0.34 0 0 Z " fill="#2E4F5D" transform="translate(214,210)"/>
<path d="M0 0 C0.66 0 1.32 0 2 0 C1.61688984 2.47184777 1.34586924 3.69400541 -0.55859375 5.37890625 C-1.48865234 5.96478516 -1.48865234 5.96478516 -2.4375 6.5625 C-5.16848 8.30143299 -6.1193068 9.17896019 -8 12 C-8.58402133 14.41417872 -8.58402133 14.41417872 -8 17 C-6.06307631 20.02033737 -6.06307631 20.02033737 -3 22 C0.63825863 22.25411568 0.63825863 22.25411568 4 21 C5.82337753 19.0431712 5.82337753 19.0431712 7 17 C7.66 17 8.32 17 9 17 C9.33 16.34 9.66 15.68 10 15 C10.33 16.32 10.66 17.64 11 19 C6.25 23 6.25 23 4 23 C4 23.66 4 24.32 4 25 C0.76645861 26.6167707 -1.42760535 26.47631929 -5 26 C-8.43605347 23.61198027 -10.59482834 20.81554018 -11.51171875 16.70703125 C-11.70629842 12.70137391 -11.26225956 10.45895423 -9.25 6.9375 C-7 5 -7 5 -3 5 C-3 4.34 -3 3.68 -3 3 C-2.01 3 -1.02 3 0 3 C0 2.01 0 1.02 0 0 Z " fill="#E4C956" transform="translate(149,173)"/>
<path d="M0 0 C0.33 1.32 0.66 2.64 1 4 C0.360625 4.12375 -0.27875 4.2475 -0.9375 4.375 C-1.9584375 4.684375 -1.9584375 4.684375 -3 5 C-3.33 5.66 -3.66 6.32 -4 7 C-2.68 7.33 -1.36 7.66 0 8 C0 7.34 0 6.68 0 6 C1.98 5.67 3.96 5.34 6 5 C6.33 7.31 6.66 9.62 7 12 C3.54422421 13.7278879 -0.22102693 13.47756253 -4 13 C-6.0625 11.5 -6.0625 11.5 -7 9 C-7.21804607 6.27961564 -7.13699388 3.73987761 -7 1 C-4.50935112 0.31292445 -2.62113708 0 0 0 Z " fill="#EDF3F5" transform="translate(239,262)"/>
<path d="M0 0 C2.80561393 1.40280696 3.00680507 3.0509005 4.125 5.9375 C4.47820312 6.83339844 4.83140625 7.72929687 5.1953125 8.65234375 C6 11 6 11 6 13 C33.39 13 60.78 13 89 13 C89 13.33 89 13.66 89 14 C60.95 14.33 32.9 14.66 4 15 C2.35 10.38 0.7 5.76 -1 1 C-0.67 0.67 -0.34 0.34 0 0 Z " fill="#3A91CE" transform="translate(304,221)"/>
<path d="M0 0 C0.598125 0.226875 1.19625 0.45375 1.8125 0.6875 C1.53165428 4.71295534 1.02884296 6.43232626 -1.625 9.5625 C-4.1875 11.6875 -4.1875 11.6875 -6.1875 11.6875 C-6.8475 13.0075 -7.5075 14.3275 -8.1875 15.6875 C-9.8375 15.6875 -11.4875 15.6875 -13.1875 15.6875 C-13.1875 14.0375 -13.1875 12.3875 -13.1875 10.6875 C-12.5275 10.6875 -11.8675 10.6875 -11.1875 10.6875 C-10.5275 9.3675 -9.8675 8.0475 -9.1875 6.6875 C-8.5275 6.6875 -7.8675 6.6875 -7.1875 6.6875 C-6.919375 6.089375 -6.65125 5.49125 -6.375 4.875 C-3.46022727 -0.49431818 -3.46022727 -0.49431818 0 0 Z " fill="#335666" transform="translate(285.1875,210.3125)"/>
<path d="M0 0 C8.91 0 17.82 0 27 0 C26.67 1.32 26.34 2.64 26 4 C17.42 4 8.84 4 0 4 C0 2.68 0 1.36 0 0 Z " fill="#12334B" transform="translate(237,290)"/>
<path d="M0 0 C1.0828125 0.3403125 1.0828125 0.3403125 2.1875 0.6875 C-0.27528801 3.15028801 -2.51926982 3.68521255 -5.8125 4.6875 C-5.8125 6.6675 -5.8125 8.6475 -5.8125 10.6875 C-4.4925 11.3475 -3.1725 12.0075 -1.8125 12.6875 C-1.8125 12.0275 -1.8125 11.3675 -1.8125 10.6875 C-2.4725 10.6875 -3.1325 10.6875 -3.8125 10.6875 C-3.8125 8.7075 -3.8125 6.7275 -3.8125 4.6875 C-2.8225 4.3575 -1.8325 4.0275 -0.8125 3.6875 C-0.8125 7.6475 -0.8125 11.6075 -0.8125 15.6875 C-1.1425 15.0275 -1.4725 14.3675 -1.8125 13.6875 C-2.616875 13.543125 -3.42125 13.39875 -4.25 13.25 C-6.8125 12.6875 -6.8125 12.6875 -8.8125 9.6875 C-8.8125 8.6975 -8.8125 7.7075 -8.8125 6.6875 C-12.38177631 8.35316228 -15.10203038 9.8415069 -17.8125 12.6875 C-18.4725 12.6875 -19.1325 12.6875 -19.8125 12.6875 C-20.1425 14.0075 -20.4725 15.3275 -20.8125 16.6875 C-21.4725 15.3675 -22.1325 14.0475 -22.8125 12.6875 C-13.95423228 4.22293307 -13.95423228 4.22293307 -7.8125 2.6875 C-6.5440625 1.8521875 -6.5440625 1.8521875 -5.25 1 C-2.8125 -0.3125 -2.8125 -0.3125 0 0 Z " fill="#607074" transform="translate(244.8125,220.3125)"/>
<path d="M0 0 C8.58 0 17.16 0 26 0 C25.67 1.32 25.34 2.64 25 4 C17.08 4 9.16 4 1 4 C0.67 2.68 0.34 1.36 0 0 Z " fill="#163446" transform="translate(238,279)"/>
<path d="M0 0 C-0.65484375 0.30550781 -1.3096875 0.61101562 -1.984375 0.92578125 C-15.12233377 7.51331708 -26.76067155 18.02845746 -32 32 C-32.33 32 -32.66 32 -33 32 C-33.24042276 27.91281305 -32.42258812 24.82320557 -31 21 C-30.34 21 -29.68 21 -29 21 C-28.01 18.69 -27.02 16.38 -26 14 C-24.68 14 -23.36 14 -22 14 C-22 13.34 -22 12.68 -22 12 C-21.34 12 -20.68 12 -20 12 C-19.938125 11.236875 -19.87625 10.47375 -19.8125 9.6875 C-19 7 -19 7 -16.75 5.25 C-14.12366601 4.05621182 -11.84614028 3.40659147 -9 3 C-9 2.34 -9 1.68 -9 1 C-5.47051709 -0.66670026 -3.71727674 -1.13583456 0 0 Z " fill="#E5CF64" transform="translate(226,198)"/>
<path d="M0 0 C1.18613892 0.00785522 1.18613892 0.00785522 2.39624023 0.01586914 C3.67724609 0.02070313 3.67724609 0.02070313 4.98413086 0.02563477 C5.88196289 0.03401367 6.77979492 0.04239258 7.70483398 0.05102539 C8.6065332 0.05553711 9.50823242 0.06004883 10.43725586 0.06469727 C12.67234712 0.07652315 14.90730835 0.09300319 17.14233398 0.11352539 C17.47233398 1.10352539 17.80233398 2.09352539 18.14233398 3.11352539 C16.14233398 5.11352539 16.14233398 5.11352539 14.26293945 5.34057617 C13.51931152 5.33010254 12.77568359 5.31962891 12.00952148 5.30883789 C11.20385742 5.30239258 10.39819336 5.29594727 9.56811523 5.28930664 C8.72635742 5.27254883 7.88459961 5.25579102 7.01733398 5.23852539 C5.7430957 5.22499023 5.7430957 5.22499023 4.44311523 5.21118164 C2.34273515 5.18758186 0.24249954 5.15171022 -1.85766602 5.11352539 C-2.42016602 3.17602539 -2.42016602 3.17602539 -2.85766602 1.11352539 C-1.85766602 0.11352539 -1.85766602 0.11352539 0 0 Z " fill="#143847" transform="translate(286.857666015625,249.886474609375)"/>
<path d="M0 0 C1.58246707 -0.08153933 3.16616273 -0.13943557 4.75 -0.1875 C6.07257813 -0.23970703 6.07257813 -0.23970703 7.421875 -0.29296875 C10.52580194 0.05975022 11.82954156 0.76952888 14 3 C14.66259654 5.83568858 14.28167693 8.04239226 14 11 C13.34 11.66 12.68 12.32 12 13 C11.34 11.35 10.68 9.7 10 8 C8.35 8 6.7 8 5 8 C5 8.66 5 9.32 5 10 C3.68 9.67 2.36 9.34 1 9 C1.33 8.01 1.66 7.02 2 6 C3.32 6 4.64 6 6 6 C5.67 4.68 5.34 3.36 5 2 C3.02 2.33 1.04 2.66 -1 3 C-0.67 2.01 -0.34 1.02 0 0 Z " fill="#F7F5F4" transform="translate(234,260)"/>
<path d="M0 0 C6.27 0 12.54 0 19 0 C19.33 0.99 19.66 1.98 20 3 C19.67 3.66 19.34 4.32 19 5 C13.06 5 7.12 5 1 5 C0.67 3.35 0.34 1.7 0 0 Z " fill="#103442" transform="translate(196,250)"/>
<path d="M0 0 C1.32 0 2.64 0 4 0 C5.57924842 3.15849685 5.14316514 6.5365128 5.125 10 C5.12886719 10.73734375 5.13273438 11.4746875 5.13671875 12.234375 C5.1266598 17.7466804 5.1266598 17.7466804 4 20 C2.68 20 1.36 20 0 20 C0 13.4 0 6.8 0 0 Z " fill="#0E3849" transform="translate(248,199)"/>
<path d="M0 0 C0.226875 0.78375 0.45375 1.5675 0.6875 2.375 C1.78125 5.21875 1.78125 5.21875 4.625 6.3125 C5.800625 6.6528125 5.800625 6.6528125 7 7 C6.67 8.32 6.34 9.64 6 11 C1.25 12.125 1.25 12.125 -1 11 C-1 11.66 -1 12.32 -1 13 C-1.99 13 -2.98 13 -4 13 C-4.33 11.68 -4.66 10.36 -5 9 C-4.34 9 -3.68 9 -3 9 C-3 8.01 -3 7.02 -3 6 C-3.99 6 -4.98 6 -6 6 C-5.625 3.5625 -5.625 3.5625 -5 1 C-3 0 -3 0 0 0 Z " fill="#E3EBEC" transform="translate(236,227)"/>
<path d="M0 0 C3.63 0 7.26 0 11 0 C10 5 10 5 8.375 8.1875 C7.92125 9.115625 7.4675 10.04375 7 11 C7.33 11.66 7.66 12.32 8 13 C5 14 5 14 2 13 C1.66307215 11.39658445 1.33058907 9.79223445 1 8.1875 C0.814375 7.29417969 0.62875 6.40085937 0.4375 5.48046875 C0 3 0 3 0 0 Z " fill="#E7EFE7" transform="translate(268,258)"/>
<path d="M0 0 C0.474375 0.78375 0.94875 1.5675 1.4375 2.375 C4.57969272 5.59383156 6.74617929 5.89836713 11.07421875 6.54296875 C11.70972656 6.69378906 12.34523437 6.84460938 13 7 C13.33 7.66 13.66 8.32 14 9 C13.01 9 12.02 9 11 9 C10.67 9.99 10.34 10.98 10 12 C9.67 11.01 9.34 10.02 9 9 C6.36 9 3.72 9 1 9 C3.97 9.495 3.97 9.495 7 10 C7 10.66 7 11.32 7 12 C5.02 12.33 3.04 12.66 1 13 C1.66 13.33 2.32 13.66 3 14 C3 14.66 3 15.32 3 16 C4.32 16.33 5.64 16.66 7 17 C0.25 16.25 0.25 16.25 -2 14 C-2.01171875 11.25 -2.01171875 11.25 -1.6875 8 C-1.58824219 6.9275 -1.48898438 5.855 -1.38671875 4.75 C-1 2 -1 2 0 0 Z " fill="#E0ECEF" transform="translate(222,241)"/>
<path d="M0 0 C10.56 0 21.12 0 32 0 C31.01 0.33 30.02 0.66 29 1 C29 1.66 29 2.32 29 3 C31.97 3.495 31.97 3.495 35 4 C35.495 5.485 35.495 5.485 36 7 C33 7 33 7 31.1875 5.9375 C28.1014526 4.61490826 26.20136723 5.13296304 23 6 C20.7927642 7.48800372 20.7927642 7.48800372 19 9 C18.34 9 17.68 9 17 9 C17 7.68 17 6.36 17 5 C17.99 5 18.98 5 20 5 C20 4.34 20 3.68 20 3 C20.99 2.67 21.98 2.34 23 2 C11.615 1.505 11.615 1.505 0 1 C0 0.67 0 0.34 0 0 Z " fill="#DC4E42" transform="translate(299,340)"/>
<path d="M0 0 C5.94 0 11.88 0 18 0 C17 4 17 4 15.4375 5.25 C11.13233359 6.57466659 6.86766641 6.57466659 2.5625 5.25 C1 4 1 4 0 0 Z " fill="#274754" transform="translate(241,295)"/>
<path d="M0 0 C8.25 0 16.5 0 25 0 C24.34 1.32 23.68 2.64 23 4 C16.73 4 10.46 4 4 4 C4 3.34 4 2.68 4 2 C2.68 2 1.36 2 0 2 C0 1.34 0 0.68 0 0 Z " fill="#0A3043" transform="translate(237,285)"/>
<path d="M0 0 C3 0.25 3 0.25 5 2.25 C5.14497985 4.83064129 5.18677545 7.29943884 5.125 9.875 C5.11597656 10.58140625 5.10695312 11.2878125 5.09765625 12.015625 C5.07407603 13.76056098 5.03820461 15.50532295 5 17.25 C4.34 17.58 3.68 17.91 3 18.25 C2.855625 17.156875 2.71125 16.06375 2.5625 14.9375 C2.11711896 11.31877013 2.11711896 11.31877013 1 8.25 C0.96045766 5.91700175 0.95598268 3.58291811 1 1.25 C0.01 1.745 0.01 1.745 -1 2.25 C-1.65772428 5.27934491 -1.65772428 5.27934491 -2 8.25 C-1.34 8.25 -0.68 8.25 0 8.25 C0 8.91 0 9.57 0 10.25 C-2.475 9.26 -2.475 9.26 -5 8.25 C-5.125 5.375 -5.125 5.375 -5 2.25 C-3 0.25 -3 0.25 0 0 Z " fill="#ECF7F6" transform="translate(243,222.75)"/>
<path d="M0 0 C2.31 0 4.62 0 7 0 C7 0.66 7 1.32 7 2 C7.66 2 8.32 2 9 2 C8.67 4.97 8.34 7.94 8 11 C6.02 11.33 4.04 11.66 2 12 C0.4375 10.5 0.4375 10.5 -1 8 C-0.96823234 5.22562457 -0.50364148 2.74713533 0 0 Z " fill="#EADFE6" transform="translate(253,263)"/>
<path d="M0 0 C7.56056338 -0.37183099 7.56056338 -0.37183099 9.625 1.375 C10.07875 1.91125 10.5325 2.4475 11 3 C12.3303125 3.37125 12.3303125 3.37125 13.6875 3.75 C18.34184504 5.50635662 21.42839105 8.609691 25 12 C24.67 12.66 24.34 13.32 24 14 C23.34 14 22.68 14 22 14 C21.67 13.34 21.34 12.68 21 12 C20.01 11.67 19.02 11.34 18 11 C16.66666667 9.66666667 15.33333333 8.33333333 14 7 C13.01 6.67 12.02 6.34 11 6 C10.67 7.98 10.34 9.96 10 12 C9.01 11.67 8.02 11.34 7 11 C7.33 10.67 7.66 10.34 8 10 C8.16666667 7 8.16666667 7 8 4 C7.01732141 2.79438816 7.01732141 2.79438816 5.15234375 2.90234375 C3.1015625 2.93489583 1.05078125 2.96744792 -1 3 C-0.67 2.01 -0.34 1.02 0 0 Z " fill="#5D6E73" transform="translate(253,221)"/>
<path d="M0 0 C3.63 0 7.26 0 11 0 C11.33 0.66 11.66 1.32 12 2 C11.01 3.485 11.01 3.485 10 5 C9.54860541 7.0492094 9.54860541 7.0492094 9.375 9.1875 C9.25125 10.445625 9.1275 11.70375 9 13 C5.6227555 11.60724746 4.12929695 10.17726069 2.25 7.0625 C1.82203125 6.37285156 1.3940625 5.68320312 0.953125 4.97265625 C0 3 0 3 0 0 Z " fill="#DFF7F8" transform="translate(221,258)"/>
<path d="M0 0 C7.7 5.13333333 7.7 5.13333333 9.125 9.25 C9 12 9 12 7 14 C7 13.34 7 12.68 7 12 C3.88214887 12.64644661 3.88214887 12.64644661 3 15 C2.01 14.67 1.02 14.34 0 14 C0 9.38 0 4.76 0 0 Z " fill="#EDE9EC" transform="translate(252,244)"/>
<path d="M0 0 C2.97063317 1.37922254 5.59718489 2.75737256 8 5 C8.390625 7.48046875 8.390625 7.48046875 8.25 10.1875 C8.21390625 11.08855469 8.1778125 11.98960937 8.140625 12.91796875 C8.07101563 13.94857422 8.07101563 13.94857422 8 15 C7.01 15 6.02 15 5 15 C4.67 15.99 4.34 16.98 4 18 C0.62132353 20.46552067 -0.70558202 21 -5 21 C-5.33 20.01 -5.66 19.02 -6 18 C-5.278125 17.938125 -4.55625 17.87625 -3.8125 17.8125 C-0.04028505 16.72274901 1.5742702 15.04948889 4 12 C4.86310548 8.25987625 4.03514342 7.05710806 2 3.75 C1.34 2.8425 0.68 1.935 0 1 C0 0.67 0 0.34 0 0 Z " fill="#E4C73D" transform="translate(190,178)"/>
<path d="M0 0 C0.33 0.66 0.66 1.32 1 2 C0.33333333 3.66666667 -0.33333333 5.33333333 -1 7 C-0.67 7.66 -0.34 8.32 0 9 C-0.63808594 9.47050781 -1.27617187 9.94101562 -1.93359375 10.42578125 C-2.75988281 11.04839844 -3.58617187 11.67101562 -4.4375 12.3125 C-5.26121094 12.92738281 -6.08492188 13.54226563 -6.93359375 14.17578125 C-9.24983637 15.91297697 -9.24983637 15.91297697 -10 19 C-12.4375 20.75 -12.4375 20.75 -15 22 C-17 21 -17 21 -18 19 C-16.5459375 18.1028125 -16.5459375 18.1028125 -15.0625 17.1875 C-8.83814942 12.77964357 -4.19623418 6.29435126 0 0 Z " fill="#D3615A" transform="translate(303,277)"/>
<path d="M0 0 C0.99 0.33 1.98 0.66 3 1 C1.7625 1.8971875 1.7625 1.8971875 0.5 2.8125 C-1.58835929 4.83614956 -1.98086643 5.83972819 -2.33203125 8.78125 C-2.31428393 11.53563439 -2.21637594 14.25442969 -2 17 C3.19548425 19.20808081 6.58264203 18.93402724 12 18 C12 18.66 12 19.32 12 20 C11.01 20 10.02 20 9 20 C9 20.66 9 21.32 9 22 C5.59981899 22.35040033 2.39289307 22.47256257 -1 22 C-4.28517072 19.32602383 -4.28517072 19.32602383 -5 16 C-5.00520389 11.61311977 -4.59289035 7.34356628 -4 3 C-3.34 3 -2.68 3 -2 3 C-2 2.34 -2 1.68 -2 1 C-1.34 0.67 -0.68 0.34 0 0 Z " fill="#CF5F5B" transform="translate(320,298)"/>
<path d="M0 0 C0.33 0 0.66 0 1 0 C1 6.6 1 13.2 1 20 C8.59 20 16.18 20 24 20 C24.66 21.32 25.32 22.64 26 24 C22.0410768 23.89049976 18.08313674 23.75978332 14.125 23.625 C12.99707031 23.5940625 11.86914062 23.563125 10.70703125 23.53125 C9.09248047 23.47324219 9.09248047 23.47324219 7.4453125 23.4140625 C6.45031738 23.3826416 5.45532227 23.3512207 4.43017578 23.31884766 C2 23 2 23 0 21 C-0.22705078 18.84521484 -0.22705078 18.84521484 -0.1953125 16.2109375 C-0.18886719 15.26992188 -0.18242187 14.32890625 -0.17578125 13.359375 C-0.15902344 12.37453125 -0.14226562 11.3896875 -0.125 10.375 C-0.11597656 9.38242187 -0.10695312 8.38984375 -0.09765625 7.3671875 C-0.07404116 4.91121866 -0.04110799 2.45572832 0 0 Z " fill="#62B2A2" transform="translate(175,302)"/>
<path d="M0 0 C1.32 0 2.64 0 4 0 C5.68823651 3.37647303 5.34381235 6.7278943 4.375 10.3125 C3 12 3 12 -0.125 12.75 C-1.548125 12.87375 -1.548125 12.87375 -3 13 C-2.67 11.02 -2.34 9.04 -2 7 C-2.66 6.67 -3.32 6.34 -4 6 C-2.68 5.34 -1.36 4.68 0 4 C0 2.68 0 1.36 0 0 Z " fill="#F3FAFA" transform="translate(271,233)"/>
<path d="M0 0 C11.55 0 23.1 0 35 0 C35 0.33 35 0.66 35 1 C23.78 1 12.56 1 1 1 C1.33 2.98 1.66 4.96 2 7 C0.125 9.75 0.125 9.75 -2 12 C-2.33 12.66 -2.66 13.32 -3 14 C-3.66 14 -4.32 14 -5 14 C-3.79814957 9.1925983 -1.84037311 4.60093277 0 0 Z " fill="#B4625C" transform="translate(309,263)"/>
<path d="M0 0 C1.9375 2.5 1.9375 2.5 3 5 C2.01 5 1.02 5 0 5 C-0.66 4.34 -1.32 3.68 -2 3 C-5.4785068 3.15123943 -7.48595221 3.62488405 -10.3125 5.6875 C-12.33999434 8.46591817 -12.69168574 10.60854311 -13 14 C-12.34 14 -11.68 14 -11 14 C-11 14.66 -11 15.32 -11 16 C-12.32 15.67 -13.64 15.34 -15 15 C-15 11.7 -15 8.4 -15 5 C-13.35 4.67 -11.7 4.34 -10 4 C-10 3.01 -10 2.02 -10 1 C-6.39076038 -0.20307987 -3.78613423 -0.40565724 0 0 Z " fill="#E4CB51" transform="translate(153,139)"/>
<path d="M0 0 C0.99 1.0209375 0.99 1.0209375 2 2.0625 C8.16434696 8.17490022 14.20659347 13.08525644 22 17 C21.67 17.66 21.34 18.32 21 19 C16.25 18.25 16.25 18.25 14 16 C13.67 15.34 13.34 14.68 13 14 C11.68 14 10.36 14 9 14 C8.67 13.01 8.34 12.02 8 11 C6.7625 10.566875 6.7625 10.566875 5.5 10.125 C4.675 9.75375 3.85 9.3825 3 9 C2.1875 6.375 2.1875 6.375 2 4 C1.01 4 0.02 4 -1 4 C-0.67 2.68 -0.34 1.36 0 0 Z " fill="#5BB4A2" transform="translate(200,283)"/>
<path d="M0 0 C0.66 0 1.32 0 2 0 C2.17835515 4.54805635 1.99785435 7.8794254 0 12 C-1.65 12 -3.3 12 -5 12 C-5.33 10.35 -5.66 8.7 -6 7 C-8.31 7.33 -10.62 7.66 -13 8 C-12.67 7.34 -12.34 6.68 -12 6 C-10.0390625 5.5078125 -10.0390625 5.5078125 -7.625 5.125 C-3.86261465 4.42838583 -3.86261465 4.42838583 -1.0625 1.875 C-0.711875 1.25625 -0.36125 0.6375 0 0 Z " fill="#D5E8EF" transform="translate(277,242)"/>
<path d="M0 0 C0.33 0 0.66 0 1 0 C1 8.25 1 16.5 1 25 C3.31 25 5.62 25 8 25 C4.83390538 26.87620422 2.64167599 27.09662822 -1 27 C-1.02898816 23.06251542 -1.04679464 19.12505821 -1.0625 15.1875 C-1.07087891 14.06794922 -1.07925781 12.94839844 -1.08789062 11.79492188 C-1.09111328 10.72177734 -1.09433594 9.64863281 -1.09765625 8.54296875 C-1.10289307 7.55321045 -1.10812988 6.56345215 -1.11352539 5.54370117 C-1 3 -1 3 0 0 Z " fill="#CF6962" transform="translate(255,372)"/>
<path d="M0 0 C2.69193189 2.22706012 3.88508861 3.50072981 4.6796875 6.953125 C5.06427913 13.44503177 5.06431837 18.8070449 3 25 C2.67 25 2.34 25 2 25 C1.67 18.4 1.34 11.8 1 5 C0.34 5 -0.32 5 -1 5 C-0.67 3.35 -0.34 1.7 0 0 Z " fill="#4F5C64" transform="translate(278,237)"/>
<path d="M0 0 C3.96 0.99 3.96 0.99 8 2 C7 6 7 6 5 8 C1.875 8.125 1.875 8.125 -1 8 C-1.625 5.6875 -1.625 5.6875 -2 3 C-1.34 2.01 -0.68 1.02 0 0 Z " fill="#E7F1EC" transform="translate(237,240)"/>
<path d="M0 0 C1.65 0 3.3 0 5 0 C5 0.66 5 1.32 5 2 C5.66 2.33 6.32 2.66 7 3 C5.02 3.99 5.02 3.99 3 5 C3.66 5.33 4.32 5.66 5 6 C2.03 5.505 2.03 5.505 -1 5 C-1 6.32 -1 7.64 -1 9 C-2.32 9 -3.64 9 -5 9 C-5 8.01 -5 7.02 -5 6 C-5.66 5.67 -6.32 5.34 -7 5 C-6.67 4.01 -6.34 3.02 -6 2 C-3.69 2.33 -1.38 2.66 1 3 C0.67 2.01 0.34 1.02 0 0 Z " fill="#EEF7F7" transform="translate(266,249)"/>
<path d="M0 0 C0.66 0 1.32 0 2 0 C2.33 3.63 2.66 7.26 3 11 C1.68 11.33 0.36 11.66 -1 12 C-1.33 12.66 -1.66 13.32 -2 14 C-5.09917926 16.01583784 -7.13756538 16.15624039 -10.75 15.625 C-11.54921875 15.51414062 -12.3484375 15.40328125 -13.171875 15.2890625 C-14.07679688 15.14597656 -14.07679688 15.14597656 -15 15 C-15.33 13.68 -15.66 12.36 -16 11 C-15.41992188 11.17917969 -14.83984375 11.35835938 -14.2421875 11.54296875 C-9.9986995 12.6983739 -7.74686488 13.26673746 -3.5 11.75 C-0.92214602 10.24119467 -0.92214602 10.24119467 0 8 C0.0689472 6.62657169 0.08467708 5.24997898 0.0625 3.875 C0.041875 2.59625 0.02125 1.3175 0 0 Z " fill="#D67875" transform="translate(334,349)"/>
<path d="M0 0 C0.66 1.32 1.32 2.64 2 4 C-2.75 8 -2.75 8 -5 8 C-5 8.66 -5 9.32 -5 10 C-8.04983996 11.52491998 -10.6423369 11.23562548 -14 11 C-15.9375 9.5 -15.9375 9.5 -17 8 C-16.67 7.34 -16.34 6.68 -16 6 C-15.40832031 6.13019531 -14.81664062 6.26039063 -14.20703125 6.39453125 C-11.72874767 6.82711909 -9.51640525 7.11822038 -7 7 C-4.03949126 4.70800597 -4.03949126 4.70800597 -2 2 C-1.34 2 -0.68 2 0 2 C0 1.34 0 0.68 0 0 Z " fill="#E4C940" transform="translate(158,188)"/>
<path d="M0 0 C1.15224028 0.92961422 2.29659176 1.8690125 3.4375 2.8125 C4.07558594 3.33457031 4.71367187 3.85664063 5.37109375 4.39453125 C7 6 7 6 8 9 C8.66 9 9.32 9 10 9 C12 12 12 12 11.75 14.5625 C11 17 11 17 9 19 C8.87625 17.9275 8.7525 16.855 8.625 15.75 C8.10356064 12.62136385 7.59911746 10.66519576 6 8 C5.01 8 4.02 8 3 8 C3 6.68 3 5.36 3 4 C2.01 4 1.02 4 0 4 C0 2.68 0 1.36 0 0 Z " fill="#E5CC6A" transform="translate(143,155)"/>
<path d="M0 0 C0.99 0 1.98 0 3 0 C3.33 2.31 3.66 4.62 4 7 C-0.75 8.125 -0.75 8.125 -3 7 C-3.33 8.32 -3.66 9.64 -4 11 C-4 8.03 -4 5.06 -4 2 C-3.01 2.33 -2.02 2.66 -1 3 C-0.67 2.01 -0.34 1.02 0 0 Z " fill="#F7F6F8" transform="translate(256,256)"/>
<path d="M0 0 C1.32 0.33 2.64 0.66 4 1 C4 1.66 4 2.32 4 3 C4.66 3 5.32 3 6 3 C6 5.64 6 8.28 6 11 C5.01 11.33 4.02 11.66 3 12 C3 12.66 3 13.32 3 14 C1.35 14 -0.3 14 -2 14 C-1.34 13.67 -0.68 13.34 0 13 C2.1690486 9.00438417 2.06721047 6.36586102 1 2 C0.67 1.34 0.34 0.68 0 0 Z " fill="#E8CB51" transform="translate(192,143)"/>
<path d="M0 0 C2.95580337 1.28720469 4.77723781 3.50346596 6.9375 5.84375 C3.9375 6.84375 3.9375 6.84375 1.75 5.90625 C1.151875 5.555625 0.55375 5.205 -0.0625 4.84375 C0.2675 4.18375 0.5975 3.52375 0.9375 2.84375 C0.10605469 3.29427734 0.10605469 3.29427734 -0.7421875 3.75390625 C-1.46664062 4.13417969 -2.19109375 4.51445312 -2.9375 4.90625 C-4.01644531 5.48052734 -4.01644531 5.48052734 -5.1171875 6.06640625 C-5.75914062 6.32292969 -6.40109375 6.57945312 -7.0625 6.84375 C-7.7225 6.51375 -8.3825 6.18375 -9.0625 5.84375 C-7.99356782 4.80784662 -6.90671512 3.79041058 -5.8125 2.78125 C-5.20921875 2.21277344 -4.6059375 1.64429688 -3.984375 1.05859375 C-2.0625 -0.15625 -2.0625 -0.15625 0 0 Z " fill="#E3CF6B" transform="translate(168.0625,181.15625)"/>
<path d="M0 0 C0.57433809 9.76374745 0.57433809 9.76374745 -3 14 C-3.99 14.33 -4.98 14.66 -6 15 C-4.25 9.25 -4.25 9.25 -2 7 C-2 6.01 -2 5.02 -2 4 C-6.29 4 -10.58 4 -15 4 C-12 1 -12 1 -10.0625 0.99609375 C-9.381875 1.14175781 -8.70125 1.28742188 -8 1.4375 C-5.97128139 1.91435552 -5.97128139 1.91435552 -4 2 C-1 0 -1 0 0 0 Z " fill="#374750" transform="translate(280,255)"/>
<path d="M0 0 C2 3 2 3 1.3203125 6.57421875 C0.93508498 7.94908248 0.53609893 9.32014921 0.125 10.6875 C-0.07480469 11.38939453 -0.27460938 12.09128906 -0.48046875 12.81445312 C-0.97529626 14.54634943 -1.48613175 16.27365748 -2 18 C-3.92142281 14.79515577 -4.20142525 12.69760815 -3.8125 9 C-3.73644531 8.154375 -3.66039062 7.30875 -3.58203125 6.4375 C-2.92230103 3.67460297 -1.83555018 2.13735223 0 0 Z " fill="#5A7074" transform="translate(221,238)"/>
<path d="M0 0 C8.06510168 -0.49155247 15.21726112 0.95062675 23 3 C23 3.66 23 4.32 23 5 C23.66 5.33 24.32 5.66 25 6 C21.39478361 7.2017388 20.88710733 6.73243247 17.5625 5.1875 C11.83837032 2.74396458 6.14342286 1.80223391 0 1 C0 0.67 0 0.34 0 0 Z " fill="#68A4C4" transform="translate(254,192)"/>
<path d="M0 0 C2.30104625 2.30104625 3.18234373 4.34375614 4.5 7.3125 C4.9228125 8.25738281 5.345625 9.20226562 5.78125 10.17578125 C6.89979085 12.76778458 7.9664691 15.37310896 9 18 C7.68 18.33 6.36 18.66 5 19 C4.71125 17.9275 4.4225 16.855 4.125 15.75 C3.19015472 12.19285195 3.19015472 12.19285195 1.875 9.875 C0.76481414 7.49603029 0.85596128 5.59269691 1 3 C0.01 3 -0.98 3 -2 3 C-2 2.34 -2 1.68 -2 1 C-1.34 0.67 -0.68 0.34 0 0 Z " fill="#59B4A2" transform="translate(191,265)"/>
<path d="M0 0 C0.99 0 1.98 0 3 0 C3 0.99 3 1.98 3 3 C10.26 3 17.52 3 25 3 C24.67 2.01 24.34 1.02 24 0 C24.99 0 25.98 0 27 0 C26.67 1.32 26.34 2.64 26 4 C17.42 4 8.84 4 0 4 C0 2.68 0 1.36 0 0 Z " fill="#576C78" transform="translate(237,290)"/>
<path d="M0 0 C0.99 0 1.98 0 3 0 C2.125 7.875 2.125 7.875 1 9 C-0.66617115 9.04063832 -2.33388095 9.042721 -4 9 C-4 7.35 -4 5.7 -4 4 C-3.34 4 -2.68 4 -2 4 C-1.34 2.68 -0.68 1.36 0 0 Z " fill="#38525F" transform="translate(276,217)"/>
<path d="M0 0 C0.70173653 4.38585329 1.10834375 8.55790643 1 13 C0.67 13 0.34 13 0 13 C-0.11214844 12.38511719 -0.22429687 11.77023437 -0.33984375 11.13671875 C-0.98513415 8.4922934 -1.64058649 6.36638648 -3 4 C-5.88195705 2.34440765 -8.7440112 1.59385959 -12 1 C-7.61991557 -1.58464442 -4.88874887 -0.81479148 0 0 Z " fill="#D8756F" transform="translate(335,298)"/>
<path d="M0 0 C2.60598877 3.90898316 2.70354328 6.33080658 3 11 C2.34 11.66 1.68 12.32 1 13 C1 12.34 1 11.68 1 11 C-1.97 10.67 -4.94 10.34 -8 10 C-7.67 9.01 -7.34 8.02 -7 7 C-5.35 6.67 -3.7 6.34 -2 6 C-1.34 4.02 -0.68 2.04 0 0 Z " fill="#D6DED3" transform="translate(244,231)"/>
<path d="M0 0 C2.375 -0.125 2.375 -0.125 5 0 C7 2 7 2 7.25 5 C7 8 7 8 5 10 C4.01 10 3.02 10 2 10 C1.67 8.35 1.34 6.7 1 5 C1.66 5 2.32 5 3 5 C3 3.68 3 2.36 3 1 C2.01 0.67 1.02 0.34 0 0 Z " fill="#E2EDF2" transform="translate(255,223)"/>
<path d="M0 0 C1.65 0.33 3.3 0.66 5 1 C5 2.98 5 4.96 5 7 C2.04335481 8.4783226 -0.74229737 8.06032783 -4 8 C-4.33 7.34 -4.66 6.68 -5 6 C-3.68 6 -2.36 6 -1 6 C-0.67 4.02 -0.34 2.04 0 0 Z " fill="#F5F6F8" transform="translate(261,267)"/>
<path d="M0 0 C1.2065625 0.0309375 1.2065625 0.0309375 2.4375 0.0625 C2.1075 3.0325 1.7775 6.0025 1.4375 9.0625 C2.4275 9.3925 3.4175 9.7225 4.4375 10.0625 C3.4475 10.0625 2.4575 10.0625 1.4375 10.0625 C1.1075 10.7225 0.7775 11.3825 0.4375 12.0625 C0.4375 10.4125 0.4375 8.7625 0.4375 7.0625 C-0.8825 6.7325 -2.2025 6.4025 -3.5625 6.0625 C-3.605221 4.39638095 -3.60313832 2.72867115 -3.5625 1.0625 C-2.5625 0.0625 -2.5625 0.0625 0 0 Z " fill="#8B9CA1" transform="translate(255.5625,223.9375)"/>
<path d="M0 0 C0.99 0 1.98 0 3 0 C2.40773634 3.02054465 1.52258515 4.90314189 -0.375 7.3125 C-2.91493354 10.7138023 -4.46798613 14.04901686 -6 18 C-6.33 18 -6.66 18 -7 18 C-7.24042276 13.91281305 -6.42258812 10.82320557 -5 7 C-4.34 7 -3.68 7 -3 7 C-2.01 4.69 -1.02 2.38 0 0 Z " fill="#E3C74F" transform="translate(200,212)"/>
<path d="M0 0 C0.33 0.66 0.66 1.32 1 2 C2.32 2 3.64 2 5 2 C5 2.66 5 3.32 5 4 C12.26 3.67 19.52 3.34 27 3 C27 3.66 27 4.32 27 5 C18.42 5 9.84 5 1 5 C0.67 3.35 0.34 1.7 0 0 Z " fill="#94ADC2" transform="translate(236,285)"/>
<path d="M0 0 C0.66 0 1.32 0 2 0 C2 0.66 2 1.32 2 2 C2.66 2 3.32 2 4 2 C4 4.64 4 7.28 4 10 C0.70851757 8.86500606 0.0040131 8.00716624 -1.75 4.875 C-2.1625 3.92625 -2.575 2.9775 -3 2 C-2.01 2 -1.02 2 0 2 C0 1.34 0 0.68 0 0 Z " fill="#B7D8D7" transform="translate(226,261)"/>
<path d="M0 0 C0.99 0 1.98 0 3 0 C3 0.99 3 1.98 3 3 C4.32 3.33 5.64 3.66 7 4 C7 3.34 7 2.68 7 2 C7.99 2 8.98 2 10 2 C9.34 3.32 8.68 4.64 8 6 C5.03 5.505 5.03 5.505 2 5 C2 5.66 2 6.32 2 7 C1.01 7 0.02 7 -1 7 C-1.33 5.68 -1.66 4.36 -2 3 C-1.34 3 -0.68 3 0 3 C0 2.01 0 1.02 0 0 Z " fill="#EFF9EA" transform="translate(233,233)"/>
<path d="M0 0 C2.64 0.33 5.28 0.66 8 1 C8 1.33 8 1.66 8 2 C6.35 2 4.7 2 3 2 C3 2.66 3 3.32 3 4 C4.65 4 6.3 4 8 4 C8 4.33 8 4.66 8 5 C6.35 5 4.7 5 3 5 C3 7.31 3 9.62 3 12 C4.65 11.67 6.3 11.34 8 11 C8 11.66 8 12.32 8 13 C5 14 5 14 2 13 C1.66307215 11.39658445 1.33058907 9.79223445 1 8.1875 C0.814375 7.29417969 0.62875 6.40085937 0.4375 5.48046875 C0 3 0 3 0 0 Z " fill="#B9C2C0" transform="translate(268,258)"/>
<path d="M0 0 C8.07029553 -0.11547323 15.97667603 0.09958689 24 1 C24 1.33 24 1.66 24 2 C16.41 2.33 8.82 2.66 1 3 C0.67 2.01 0.34 1.02 0 0 Z " fill="#63B4A2" transform="translate(135,323)"/>
<path d="M0 0 C0.99 0.33 1.98 0.66 3 1 C3.6875 3.3125 3.6875 3.3125 4 6 C2.625 7.6875 2.625 7.6875 1 9 C0.67 9.66 0.34 10.32 0 11 C-0.99 10.67 -1.98 10.34 -3 10 C-2.34 10 -1.68 10 -1 10 C-1 9.01 -1 8.02 -1 7 C-1.66 6.67 -2.32 6.34 -3 6 C-2.01 5.67 -1.02 5.34 0 5 C-2.475 4.01 -2.475 4.01 -5 3 C-2 1 -2 1 0 0 Z " fill="#D7D3D9" transform="translate(242,249)"/>
<path d="M0 0 C4.455 0.99 4.455 0.99 9 2 C9 2.66 9 3.32 9 4 C7.02 4.33 5.04 4.66 3 5 C3.66 5.33 4.32 5.66 5 6 C5 6.66 5 7.32 5 8 C6.32 8.33 7.64 8.66 9 9 C2.25 8.25 2.25 8.25 0 6 C-0.125 2.875 -0.125 2.875 0 0 Z " fill="#DCDFC7" transform="translate(220,249)"/>
<path d="M0 0 C0.33 0.66 0.66 1.32 1 2 C1.99 2 2.98 2 4 2 C4 1.34 4 0.68 4 0 C5.32 0.33 6.64 0.66 8 1 C7.67 2.65 7.34 4.3 7 6 C5.00045254 6.04254356 2.99958364 6.04080783 1 6 C0 5 0 5 -0.0625 2.4375 C-0.041875 1.633125 -0.02125 0.82875 0 0 Z " fill="#EDF4F3" transform="translate(257,242)"/>
<path d="M0 0 C1.32 0 2.64 0 4 0 C4 7.26 4 14.52 4 22 C2.35 22.66 0.7 23.32 -1 24 C-0.51144531 23.16855469 -0.02289063 22.33710938 0.48046875 21.48046875 C2.22617419 17.48195063 2.36868962 14.65639018 2.3125 10.3125 C2.30863281 9.00925781 2.30476562 7.70601562 2.30078125 6.36328125 C2.25864875 2.86972813 2.25864875 2.86972813 0 0 Z " fill="#384F57" transform="translate(245,222)"/>
<path d="M0 0 C0.66 0.33 1.32 0.66 2 1 C2.75 3.9375 2.75 3.9375 3 7 C2.34 7.66 1.68 8.32 1 9 C1 8.34 1 7.68 1 7 C-0.65 7.66 -2.3 8.32 -4 9 C-3.6875 5.625 -3.6875 5.625 -3 2 C-2.01 1.34 -1.02 0.68 0 0 Z " fill="#D98D92" transform="translate(258,249)"/>
<path d="M0 0 C0.33 0 0.66 0 1 0 C1.01417969 1.00160156 1.02835938 2.00320312 1.04296875 3.03515625 C1.27038577 10.61508906 1.45554053 16.32030982 7 22 C7.66 22.33 8.32 22.66 9 23 C8.67 23.66 8.34 24.32 8 25 C5.95880212 23.38405168 3.95927063 21.7143618 2 20 C2 19.34 2 18.68 2 18 C1.34 18 0.68 18 0 18 C0 12.06 0 6.12 0 0 Z " fill="#334D54" transform="translate(251,225)"/>
<path d="M0 0 C2.84772078 1.49505341 3.29190296 2.43165322 4.5 5.3125 C5.16 5.6425 5.82 5.9725 6.5 6.3125 C6.83 7.3025 7.16 8.2925 7.5 9.3125 C8.16 9.9725 8.82 10.6325 9.5 11.3125 C8.51 11.3125 7.52 11.3125 6.5 11.3125 C6.17 10.3225 5.84 9.3325 5.5 8.3125 C4.84 8.3125 4.18 8.3125 3.5 8.3125 C1.79006566 6.6902546 0.12652316 5.01836575 -1.5 3.3125 C-2.098125 2.714375 -2.69625 2.11625 -3.3125 1.5 C-3.704375 1.108125 -4.09625 0.71625 -4.5 0.3125 C-2.5 -0.6875 -2.5 -0.6875 0 0 Z " fill="#6FABC6" transform="translate(289.5,202.6875)"/>
<path d="M0 0 C1.65 0.33 3.3 0.66 5 1 C5.33 2.32 5.66 3.64 6 5 C5.34 5 4.68 5 4 5 C4 5.66 4 6.32 4 7 C2.35 6.67 0.7 6.34 -1 6 C-0.67 4.02 -0.34 2.04 0 0 Z " fill="#E7F4F8" transform="translate(264,227)"/>
<path d="M0 0 C0.94875 0.04125 1.8975 0.0825 2.875 0.125 C2.215 1.445 1.555 2.765 0.875 4.125 C0.875 3.135 0.875 2.145 0.875 1.125 C-0.115 1.62 -0.115 1.62 -1.125 2.125 C-1.78272428 5.15434491 -1.78272428 5.15434491 -2.125 8.125 C-1.465 8.125 -0.805 8.125 -0.125 8.125 C-0.125 8.785 -0.125 9.445 -0.125 10.125 C-2.6 9.135 -2.6 9.135 -5.125 8.125 C-5.25 5.25 -5.25 5.25 -5.125 2.125 C-3.125 0.125 -3.125 0.125 0 0 Z " fill="#CBDDE2" transform="translate(243.125,222.875)"/>
<path d="M0 0 C1.32 0 2.64 0 4 0 C5.59412284 3.18824568 5.10174735 6.62896662 5.0625 10.125 C5.05798828 10.87910156 5.05347656 11.63320312 5.04882812 12.41015625 C5.03703499 14.27347127 5.01909942 16.13674555 5 18 C4.67 18 4.34 18 4 18 C3.92652344 16.95199219 3.92652344 16.95199219 3.8515625 15.8828125 C3.73941406 14.51769531 3.73941406 14.51769531 3.625 13.125 C3.55539063 12.22007812 3.48578125 11.31515625 3.4140625 10.3828125 C3.20431868 7.82058097 3.20431868 7.82058097 1 6 C1.375 3.375 1.375 3.375 2 1 C1.34 0.67 0.68 0.34 0 0 Z " fill="#506B73" transform="translate(248,199)"/>
<path d="M0 0 C1.65 0 3.3 0 5 0 C5 0.66 5 1.32 5 2 C5.66 2 6.32 2 7 2 C7 3.32 7 4.64 7 6 C4.625 6.125 4.625 6.125 2 6 C1.34 5.34 0.68 4.68 0 4 C0 2.68 0 1.36 0 0 Z " fill="#ECF4F7" transform="translate(226,240)"/>
<path d="M0 0 C0.66 0 1.32 0 2 0 C2.38971999 2.10149011 2.76131477 4.2063482 3.125 6.3125 C3.33382813 7.48425781 3.54265625 8.65601563 3.7578125 9.86328125 C4 13 4 13 2 16 C1.01 15.67 0.02 15.34 -1 15 C-0.34 15 0.32 15 1 15 C0.67 10.05 0.34 5.1 0 0 Z " fill="#D4625A" transform="translate(356,324)"/>
<path d="M0 0 C0.99 0.7734375 0.99 0.7734375 2 1.5625 C5.18095153 3.08670594 5.83835564 3.07607235 9.125 2.5 C11.043125 2.2525 11.043125 2.2525 13 2 C14.7421875 3.46875 14.7421875 3.46875 16 5 C14.62714844 4.94779297 14.62714844 4.94779297 13.2265625 4.89453125 C12.03804687 4.86746094 10.84953125 4.84039062 9.625 4.8125 C8.44164062 4.77769531 7.25828125 4.74289062 6.0390625 4.70703125 C5.03617188 4.80371094 4.03328125 4.90039062 3 5 C2.34 5.99 1.68 6.98 1 8 C0 7 0 7 -0.0625 3.4375 C-0.041875 2.303125 -0.02125 1.16875 0 0 Z " fill="#394C54" transform="translate(219,254)"/>
<path d="M0 0 C5.94 0 11.88 0 18 0 C17.67 1.32 17.34 2.64 17 4 C16.67 3.34 16.34 2.68 16 2 C12.37 2 8.74 2 5 2 C5 2.99 5 3.98 5 5 C3.68 4.67 2.36 4.34 1 4 C0.67 2.68 0.34 1.36 0 0 Z " fill="#81969C" transform="translate(241,295)"/>
<path d="M0 0 C0.33 2.31 0.66 4.62 1 7 C0.01 7.33 -0.98 7.66 -2 8 C-2 7.34 -2 6.68 -2 6 C-3.32 5.34 -4.64 4.68 -6 4 C-6 3.01 -6 2.02 -6 1 C-1.125 0 -1.125 0 0 0 Z " fill="#E6D2D7" transform="translate(245,267)"/>
<path d="M0 0 C3.33717549 1.3809002 5.22301036 2.8201238 7 6 C6.6875 8.25 6.6875 8.25 6 10 C4.35 10 2.7 10 1 10 C0.67 9.34 0.34 8.68 0 8 C1.32 7.67 2.64 7.34 4 7 C3.525625 6.5875 3.05125 6.175 2.5625 5.75 C0.83733482 3.817815 0.43415125 2.51807725 0 0 Z " fill="#556D75" transform="translate(222,216)"/>
<path d="M0 0 C0.66 0 1.32 0 2 0 C2.33 0.33 2.66 0.66 3 1 C3.99 0.67 4.98 0.34 6 0 C5.67 1.32 5.34 2.64 5 4 C4.34 3.67 3.68 3.34 3 3 C3 3.99 3 4.98 3 6 C2.01 6 1.02 6 0 6 C0 6.66 0 7.32 0 8 C-0.99 7.67 -1.98 7.34 -3 7 C-2.01 4.69 -1.02 2.38 0 0 Z " fill="#EAC521" transform="translate(146,170)"/>
<path d="M0 0 C0.99 0 1.98 0 3 0 C3.73080266 1.97746603 4.39421747 3.98072489 5 6 C4.67 6.66 4.34 7.32 4 8 C2.68 7.67 1.36 7.34 0 7 C-0.38133299 5.0085944 -0.71325582 3.00720923 -1 1 C-0.67 0.67 -0.34 0.34 0 0 Z " fill="#405B65" transform="translate(214,210)"/>
<path d="M0 0 C2.77704031 1.38852015 3.03382737 2.96788482 4.1875 5.8125 C4.55230469 6.68519531 4.91710937 7.55789062 5.29296875 8.45703125 C6.04115271 11.14801336 5.9458895 12.415372 5 15 C3.06061181 12.09091772 2.03225043 9.59137621 0.875 6.3125 C0.52179688 5.31863281 0.16859375 4.32476562 -0.1953125 3.30078125 C-0.46085937 2.54152344 -0.72640625 1.78226563 -1 1 C-0.67 0.67 -0.34 0.34 0 0 Z " fill="#69A6C7" transform="translate(304,221)"/>
<path d="M0 0 C0 2.31 0 4.62 0 7 C-1.98 7.33 -3.96 7.66 -6 8 C-5.57004265 4.99029853 -3.66008917 0 0 0 Z " fill="#E7C84F" transform="translate(190,157)"/>
<path d="M0 0 C0.33 0.66 0.66 1.32 1 2 C1.99 2.33 2.98 2.66 4 3 C3.01 3.495 3.01 3.495 2 4 C1.34786708 6.02463255 1.34786708 6.02463255 1 8 C0.01 8 -0.98 8 -2 8 C-2 7.34 -2 6.68 -2 6 C-2.66 6 -3.32 6 -4 6 C-4 5.34 -4 4.68 -4 4 C-3.34 4 -2.68 4 -2 4 C-2 3.34 -2 2.68 -2 2 C-1.34 2 -0.68 2 0 2 C0 1.34 0 0.68 0 0 Z " fill="#9EC5BC" transform="translate(270,230)"/>
<path d="M0 0 C1.32 0 2.64 0 4 0 C5.60080151 4.00200378 4.29279692 7.04556236 3 11 C2.34 11 1.68 11 1 11 C1.03255208 9.01432292 1.06510417 7.02864583 1.09765625 5.04296875 C1.08263217 2.79694539 1.08263217 2.79694539 0 0 Z " fill="#4BAD99" transform="translate(199,326)"/>
<path d="M0 0 C0.66 0 1.32 0 2 0 C1.67 5.28 1.34 10.56 1 16 C1.99 16.33 2.98 16.66 4 17 C4 17.66 4 18.32 4 19 C2.68 19 1.36 19 0 19 C0 12.73 0 6.46 0 0 Z " fill="#26434C" transform="translate(248,200)"/>
<path d="M0 0 C0.66 0.33 1.32 0.66 2 1 C1.34 2.65 0.68 4.3 0 6 C-2.97 6 -5.94 6 -9 6 C-6.12050853 3.76039553 -3.23257974 1.70135776 0 0 Z " fill="#D9756F" transform="translate(283,297)"/>
<path d="M0 0 C0.99 0.33 1.98 0.66 3 1 C2 4 2 4 -0.4375 5.75 C-1.7059375 6.36875 -1.7059375 6.36875 -3 7 C-5 6 -5 6 -6 4 C-3.1875 1.9375 -3.1875 1.9375 0 0 Z " fill="#D55E58" transform="translate(291,292)"/>
<path d="M0 0 C0.99 0 1.98 0 3 0 C3.33 0.99 3.66 1.98 4 3 C2.125 5.5625 2.125 5.5625 0 8 C-0.33 8.66 -0.66 9.32 -1 10 C-1.66 10 -2.32 10 -3 10 C-2.21302675 6.58978257 -1.12880057 3.31114834 0 0 Z " fill="#D56F69" transform="translate(307,267)"/>
<path d="M0 0 C3.33557632 2.9905167 5.15083921 5.93184627 7 10 C6.01 10 5.02 10 4 10 C2.578125 8.57421875 2.578125 8.57421875 1.25 6.6875 C0.80140625 6.07261719 0.3528125 5.45773437 -0.109375 4.82421875 C-1 3 -1 3 0 0 Z " fill="#637172" transform="translate(221,261)"/>
<path d="M0 0 C7.75 -0.125 7.75 -0.125 10 1 C9.67 2.32 9.34 3.64 9 5 C8.34 4.34 7.68 3.68 7 3 C4.31160615 2.73008094 1.70858064 2.91262643 -1 3 C-0.67 2.01 -0.34 1.02 0 0 Z " fill="#4E6168" transform="translate(253,221)"/>
<path d="M0 0 C0.33 1.32 0.66 2.64 1 4 C-1.60582371 4.93065133 -2.64198224 5.14917407 -5.25 4.0625 C-5.8275 3.711875 -6.405 3.36125 -7 3 C-7 2.34 -7 1.68 -7 1 C-4.50935112 0.31292445 -2.62113708 0 0 0 Z " fill="#DBB8BD" transform="translate(239,262)"/>
<path d="M0 0 C0.66 0.33 1.32 0.66 2 1 C2 2.98 2 4.96 2 7 C0.68 6.67 -0.64 6.34 -2 6 C-2.33 4.35 -2.66 2.7 -3 1 C-2.01 0.67 -1.02 0.34 0 0 Z " fill="#E7E6E6" transform="translate(245,255)"/>
<path d="M0 0 C0.66 0 1.32 0 2 0 C2.125 2.875 2.125 2.875 2 6 C0 8 0 8 -3.125 8.125 C-4.548125 8.063125 -4.548125 8.063125 -6 8 C-5.67 7.34 -5.34 6.68 -5 6 C-3.68 6 -2.36 6 -1 6 C-0.67 4.02 -0.34 2.04 0 0 Z " fill="#E4F6F9" transform="translate(278,249)"/>
<path d="M0 0 C1.32 0 2.64 0 4 0 C5.35439668 2.70879335 5.06501451 5.00933268 5 8 C4.38125 7.649375 3.7625 7.29875 3.125 6.9375 C2.073125 6.4734375 2.073125 6.4734375 1 6 C0.01 6.495 0.01 6.495 -1 7 C-0.67 4.69 -0.34 2.38 0 0 Z " fill="#E3F2F4" transform="translate(271,233)"/>
<path d="M0 0 C1.32 0.33 2.64 0.66 4 1 C3.67 1.33 3.34 1.66 3 2 C2.52725344 6.25471906 3.60985131 8.51436649 6 12 C3.5625 11.1875 3.5625 11.1875 1 10 C-0.1577506 6.52674819 -0.06866652 3.63932552 0 0 Z " fill="#E6D162" transform="translate(138,183)"/>
<path d="M0 0 C0.99 0.33 1.98 0.66 3 1 C1.7934375 1.9590625 1.7934375 1.9590625 0.5625 2.9375 C-2.75412763 6.90127449 -2.87952582 9.97294083 -3 15 C-3.33 15 -3.66 15 -4 15 C-4 11.04 -4 7.08 -4 3 C-3.34 3 -2.68 3 -2 3 C-2 2.34 -2 1.68 -2 1 C-1.34 0.67 -0.68 0.34 0 0 Z " fill="#DF817D" transform="translate(320,298)"/>
<path d="M0 0 C0.33 0.66 0.66 1.32 1 2 C1.66 2 2.32 2 3 2 C2.74438677 4.3431213 2.40729228 6.67843403 2 9 C1.01 9.495 1.01 9.495 0 10 C-0.19412181 8.52168779 -0.38012131 7.04230684 -0.5625 5.5625 C-0.66691406 4.73878906 -0.77132812 3.91507813 -0.87890625 3.06640625 C-0.91886719 2.38449219 -0.95882812 1.70257813 -1 1 C-0.67 0.67 -0.34 0.34 0 0 Z " fill="#E9F5F5" transform="translate(253,229)"/>
<path d="M0 0 C0.845625 0.309375 1.69125 0.61875 2.5625 0.9375 C6.0497854 2.01538821 9.38177535 2.56581304 13 3 C9.64672361 5.23551759 9.09256343 5.17283528 5.3125 4.625 C4.10013672 4.45871094 4.10013672 4.45871094 2.86328125 4.2890625 C1.94095703 4.14597656 1.94095703 4.14597656 1 4 C0.67 2.68 0.34 1.36 0 0 Z " fill="#C6625A" transform="translate(318,360)"/>
<path d="M0 0 C1.48206495 0.254496 2.96068615 0.52911762 4.4375 0.8125 C5.67306641 1.03873047 5.67306641 1.03873047 6.93359375 1.26953125 C7.61550781 1.51058594 8.29742187 1.75164062 9 2 C9.33 2.99 9.66 3.98 10 5 C7.04725901 5 5.50941597 4.56108169 2.8125 3.5 C2.09707031 3.2215625 1.38164062 2.943125 0.64453125 2.65625 C0.10183594 2.4396875 -0.44085938 2.223125 -1 2 C-0.67 1.34 -0.34 0.68 0 0 Z " fill="#CE625E" transform="translate(325,342)"/>
<path d="M0 0 C0.66 0.99 1.32 1.98 2 3 C4.77262255 3.38394667 7.34323528 3.60342248 10.125 3.6875 C10.87910156 3.72166016 11.63320313 3.75582031 12.41015625 3.79101562 C14.27291201 3.87354278 16.13643326 3.93844711 18 4 C18 4.33 18 4.66 18 5 C12.06 5 6.12 5 0 5 C-0.33 3.68 -0.66 2.36 -1 1 C-0.67 0.67 -0.34 0.34 0 0 Z " fill="#6E848B" transform="translate(285,250)"/>
<path d="M0 0 C0.66 0.33 1.32 0.66 2 1 C1.67 2.32 1.34 3.64 1 5 C-4.94 5 -10.88 5 -17 5 C-17 4.67 -17 4.34 -17 4 C-9.08 3.505 -9.08 3.505 -1 3 C-0.67 2.01 -0.34 1.02 0 0 Z " fill="#6C8188" transform="translate(214,250)"/>
<path d="M0 0 C0.928125 0.20625 1.85625 0.4125 2.8125 0.625 C2.8125 1.285 2.8125 1.945 2.8125 2.625 C3.4725 2.625 4.1325 2.625 4.8125 2.625 C4.8125 3.285 4.8125 3.945 4.8125 4.625 C5.4725 4.955 6.1325 5.285 6.8125 5.625 C3.8425 5.13 3.8425 5.13 0.8125 4.625 C0.4825 3.305 0.1525 1.985 -0.1875 0.625 C-2.1675 0.955 -4.1475 1.285 -6.1875 1.625 C-3.1875 -0.375 -3.1875 -0.375 0 0 Z " fill="#D2E6E4" transform="translate(263.1875,233.375)"/>
<path d="M0 0 C2.97 0.495 2.97 0.495 6 1 C5.34 1.66 4.68 2.32 4 3 C3.01 3 2.02 3 1 3 C0.67 4.98 0.34 6.96 0 9 C-0.99 8.67 -1.98 8.34 -3 8 C-2.01 5.36 -1.02 2.72 0 0 Z " fill="#6A7A7C" transform="translate(263,224)"/>
<path d="M0 0 C0.33 0.66 0.66 1.32 1 2 C-1.25 4.5 -1.25 4.5 -4 7 C-5.32 7 -6.64 7 -8 7 C-8.33 6.01 -8.66 5.02 -9 4 C-8.2575 3.896875 -7.515 3.79375 -6.75 3.6875 C-3.82985982 2.95746496 -2.26812446 1.93210602 0 0 Z " fill="#E4CE61" transform="translate(193,192)"/>
<path d="M0 0 C0.66 1.32 1.32 2.64 2 4 C-0.25 6.0625 -0.25 6.0625 -3 8 C-5.3125 7.75 -5.3125 7.75 -7 7 C-5.37660195 5.29115995 -3.70680947 3.62553283 -2 2 C-1.34 2 -0.68 2 0 2 C0 1.34 0 0.68 0 0 Z " fill="#E8CD54" transform="translate(158,188)"/>
<path d="M0 0 C0.99 0.495 0.99 0.495 2 1 C2 1.66 2 2.32 2 3 C3.32 3.66 4.64 4.32 6 5 C6 5.66 6 6.32 6 7 C6.99 7.33 7.98 7.66 9 8 C8.01 8.33 7.02 8.66 6 9 C2.8125 6.8125 2.8125 6.8125 0 4 C0 2.68 0 1.36 0 0 Z " fill="#E7D067" transform="translate(175,187)"/>
<path d="M0 0 C2.97 0 5.94 0 9 0 C9.33 1.32 9.66 2.64 10 4 C9.0925 3.62875 8.185 3.2575 7.25 2.875 C4.11902985 1.69640701 4.11902985 1.69640701 1.625 2.875 C1.08875 3.24625 0.5525 3.6175 0 4 C0 2.68 0 1.36 0 0 Z " fill="#E3D059" transform="translate(182,139)"/>
<path d="M0 0 C2 1.5625 2 1.5625 4 4 C4.25 7.75 4.25 7.75 4 11 C3.01 10.67 2.02 10.34 1 10 C1 8.35 1 6.7 1 5 C0.34 5 -0.32 5 -1 5 C-0.67 3.35 -0.34 1.7 0 0 Z " fill="#7A8E97" transform="translate(278,237)"/>
<path d="M0 0 C1.65 0.33 3.3 0.66 5 1 C2.31158141 3.25245881 0.35358125 4.88213958 -3 6 C-3 4.68 -3 3.36 -3 2 C-2.01 2 -1.02 2 0 2 C0 1.34 0 0.68 0 0 Z " fill="#D36A65" transform="translate(319,343)"/>
<path d="M0 0 C1.65 0 3.3 0 5 0 C4.67 1.65 4.34 3.3 4 5 C2.68 4.67 1.36 4.34 0 4 C0 2.68 0 1.36 0 0 Z " fill="#AF6B73" transform="translate(255,267)"/>
<path d="M0 0 C-0.33 0.99 -0.66 1.98 -1 3 C-2.98 3.33 -4.96 3.66 -7 4 C-7.33 4.99 -7.66 5.98 -8 7 C-8.66 6.67 -9.32 6.34 -10 6 C-10 5.34 -10 4.68 -10 4 C-8.71086513 3.32845067 -7.41859796 2.66291141 -6.125 2 C-5.40570313 1.62875 -4.68640625 1.2575 -3.9453125 0.875 C-2 0 -2 0 0 0 Z " fill="#E8C420" transform="translate(169,184)"/>
<path d="M0 0 C-4.75 4.875 -4.75 4.875 -7 6 C-6.67 4.02 -6.34 2.04 -6 0 C-3 -1 -3 -1 0 0 Z " fill="#E3CD58" transform="translate(179,147)"/>
<path d="M0 0 C0.33 1.32 0.66 2.64 1 4 C-2.28976808 5.09658936 -3.71303767 4.79953138 -7 4 C-7 3.34 -7 2.68 -7 2 C-4.69 1.34 -2.38 0.68 0 0 Z " fill="#E1E8DB" transform="translate(278,258)"/>
<path d="M0 0 C1.75 1.3125 1.75 1.3125 3 3 C3 3.66 3 4.32 3 5 C0.69 4.67 -1.62 4.34 -4 4 C-4 3.01 -4 2.02 -4 1 C-2.1875 0.3125 -2.1875 0.3125 0 0 Z " fill="#4B656A" transform="translate(264,247)"/>
<path d="M0 0 C0 0.66 0 1.32 0 2 C-7.42857143 2.28571429 -7.42857143 2.28571429 -11 0 C-6.98195309 -0.84098656 -3.98196457 -1.05404945 0 0 Z " fill="#DC6C63" transform="translate(266,307)"/>
<path d="M0 0 C0.33 0.66 0.66 1.32 1 2 C-3.00200378 3.60080151 -6.04556236 2.29279692 -10 1 C-6.44020218 -1.32756011 -4.04793886 -1.07945036 0 0 Z " fill="#D46B67" transform="translate(333,298)"/>
<path d="M0 0 C0 0.66 0 1.32 0 2 C0.66 2.33 1.32 2.66 2 3 C-0.07553648 3.5534764 -1.84365964 4 -4 4 C-4.99 4.33 -5.98 4.66 -7 5 C-6.67 3.68 -6.34 2.36 -6 1 C-3.92446352 0.4465236 -2.15634036 0 0 0 Z " fill="#F3F9FB" transform="translate(263,234)"/>
<path d="M0 0 C0.66 0 1.32 0 2 0 C2 2.64 2 5.28 2 8 C1.01 7.67 0.02 7.34 -1 7 C-1.04254356 5.00045254 -1.04080783 2.99958364 -1 1 C-0.67 0.67 -0.34 0.34 0 0 Z " fill="#687B81" transform="translate(242,224)"/>
<path d="M0 0 C1.32 0.33 2.64 0.66 4 1 C4 2.32 4 3.64 4 5 C3.34 5 2.68 5 2 5 C2 4.34 2 3.68 2 3 C0.35 3.33 -1.3 3.66 -3 4 C-2.01 2.68 -1.02 1.36 0 0 Z " fill="#6C808C" transform="translate(283,210)"/>
<path d="M0 0 C0.33 0.66 0.66 1.32 1 2 C2.32 2 3.64 2 5 2 C5 2.66 5 3.32 5 4 C6.65 4 8.3 4 10 4 C10 4.33 10 4.66 10 5 C7.03 5 4.06 5 1 5 C0.67 3.35 0.34 1.7 0 0 Z " fill="#8CA2B0" transform="translate(236,285)"/>
<path d="M0 0 C0.66 0 1.32 0 2 0 C2 0.66 2 1.32 2 2 C2.66 2 3.32 2 4 2 C4 2.66 4 3.32 4 4 C3.34 4 2.68 4 2 4 C2 4.66 2 5.32 2 6 C1.34 6 0.68 6 0 6 C0 5.34 0 4.68 0 4 C-0.66 4 -1.32 4 -2 4 C-2 3.34 -2 2.68 -2 2 C-1.34 2 -0.68 2 0 2 C0 1.34 0 0.68 0 0 Z " fill="#8BBCAF" transform="translate(262,261)"/>
<path d="M0 0 C3.63 0 7.26 0 11 0 C11.33 0.66 11.66 1.32 12 2 C11.34 2.66 10.68 3.32 10 4 C9.67 3.67 9.34 3.34 9 3 C7.48071962 2.92820036 5.95832518 2.91607993 4.4375 2.9375 C3.19806641 2.95103516 3.19806641 2.95103516 1.93359375 2.96484375 C0.97646484 2.98224609 0.97646484 2.98224609 0 3 C0 2.01 0 1.02 0 0 Z " fill="#BDD0D5" transform="translate(221,258)"/>
<path d="M0 0 C1.65 0.33 3.3 0.66 5 1 C4.67 2.32 4.34 3.64 4 5 C2.68 4.67 1.36 4.34 0 4 C0 2.68 0 1.36 0 0 Z " fill="#F5FAFC" transform="translate(237,243)"/>
<path d="M0 0 C2.0625 0.4375 2.0625 0.4375 4 1 C3.67 2.32 3.34 3.64 3 5 C1.68 5.33 0.36 5.66 -1 6 C-1.33 5.34 -1.66 4.68 -2 4 C-1.01 4 -0.02 4 1 4 C1 3.34 1 2.68 1 2 C0.34 1.67 -0.32 1.34 -1 1 C-0.67 0.67 -0.34 0.34 0 0 Z " fill="#E9EFF3" transform="translate(271,240)"/>
<path d="M0 0 C1.32 0 2.64 0 4 0 C4 0.99 4 1.98 4 3 C3.34 3 2.68 3 2 3 C2 3.66 2 4.32 2 5 C1.01 5 0.02 5 -1 5 C-0.67 3.35 -0.34 1.7 0 0 Z " fill="#EBF2F6" transform="translate(231,228)"/>
<path d="M0 0 C2.64 0 5.28 0 8 0 C8 0.99 8 1.98 8 3 C5.36 3 2.72 3 0 3 C0 2.01 0 1.02 0 0 Z " fill="#CEDBB3" transform="translate(236,238)"/>
<path d="M0 0 C1.65 0 3.3 0 5 0 C5 1.65 5 3.3 5 5 C3.35 5 1.7 5 0 5 C0 3.35 0 1.7 0 0 Z " fill="#729EB3" transform="translate(227,234)"/>
<path d="M0 0 C1.65 0.33 3.3 0.66 5 1 C5 1.99 5 2.98 5 4 C2.03 3.505 2.03 3.505 -1 3 C-0.67 2.01 -0.34 1.02 0 0 Z " fill="#EACA4B" transform="translate(169,184)"/>
<path d="M0 0 C1.32 0.33 2.64 0.66 4 1 C-0.75 5.875 -0.75 5.875 -3 7 C-3 5.68 -3 4.36 -3 3 C-2.01 3 -1.02 3 0 3 C0 2.01 0 1.02 0 0 Z " fill="#E6CE60" transform="translate(143,140)"/>
<path d="M0 0 C1.65 0 3.3 0 5 0 C5 1.65 5 3.3 5 5 C3.35 5 1.7 5 0 5 C0 3.35 0 1.7 0 0 Z " fill="#6A99B3" transform="translate(272,249)"/>
<path d="M0 0 C0.33 0.99 0.66 1.98 1 3 C1.99 3 2.98 3 4 3 C3.67 3.99 3.34 4.98 3 6 C3 5.34 3 4.68 3 4 C0.69 4.33 -1.62 4.66 -4 5 C-4 4.34 -4 3.68 -4 3 C-2.68 2.67 -1.36 2.34 0 2 C0 1.34 0 0.68 0 0 Z " fill="#C5DFE6" transform="translate(229,230)"/>
<path d="M0 0 C3.3 0.99 6.6 1.98 10 3 C10 3.33 10 3.66 10 4 C7.36 4 4.72 4 2 4 C1.34 2.68 0.68 1.36 0 0 Z " fill="#D28782" transform="translate(318,315)"/>
<path d="M0 0 C2.475 0.495 2.475 0.495 5 1 C5 2.32 5 3.64 5 5 C4.34 5 3.68 5 3 5 C3 4.34 3 3.68 3 3 C2.01 3 1.02 3 0 3 C0 2.01 0 1.02 0 0 Z " fill="#58B3A1" transform="translate(229,304)"/>
<path d="M0 0 C0 0.66 0 1.32 0 2 C-3.96 1.67 -7.92 1.34 -12 1 C-12 0.67 -12 0.34 -12 0 C-3.42857143 -1.28571429 -3.42857143 -1.28571429 0 0 Z " fill="#68BDAE" transform="translate(176,299)"/>
<path d="M0 0 C1 2 1 2 0.3125 4.5625 C-0.120625 5.366875 -0.55375 6.17125 -1 7 C-2.32 7.33 -3.64 7.66 -5 8 C-3.35 5.36 -1.7 2.72 0 0 Z " fill="#D2716B" transform="translate(303,277)"/>
<path d="M0 0 C0.66 0 1.32 0 2 0 C1.67 2.31 1.34 4.62 1 7 C0.34 6.67 -0.32 6.34 -1 6 C-1.042721 4.33388095 -1.04063832 2.66617115 -1 1 C-0.67 0.67 -0.34 0.34 0 0 Z " fill="#E4F3F0" transform="translate(246,266)"/>
<path d="M0 0 C0.66 0.66 1.32 1.32 2 2 C-0.625 6.875 -0.625 6.875 -4 8 C-2.25 2.25 -2.25 2.25 0 0 Z " fill="#535D5C" transform="translate(278,262)"/>
<path d="M0 0 C0.66 0 1.32 0 2 0 C2 0.66 2 1.32 2 2 C2.66 2 3.32 2 4 2 C3.67 3.98 3.34 5.96 3 8 C2.67 8 2.34 8 2 8 C2 6.35 2 4.7 2 3 C0.68 2.67 -0.64 2.34 -2 2 C-1.34 1.34 -0.68 0.68 0 0 Z " fill="#E4E9E5" transform="translate(258,263)"/>
<path d="M0 0 C0.33 1.32 0.66 2.64 1 4 C2.65 4 4.3 4 6 4 C5.01 5.485 5.01 5.485 4 7 C4 6.34 4 5.68 4 5 C2.35 5.66 0.7 6.32 -1 7 C-0.67 4.69 -0.34 2.38 0 0 Z " fill="#D9A3A9" transform="translate(255,251)"/>
<path d="" fill="#FFFFFF" transform="translate(0,0)"/>
<path d="" fill="#AAAAAA" transform="translate(0,0)"/>
</svg>
